<svg xmlns="http://www.w3.org/2000/svg" version="1.1" xmlns:xlink="http://www.w3.org/1999/xlink" width="512" height="512" x="0" y="0" viewBox="0 0 512.009 512.009" style="enable-background:new 0 0 512 512" xml:space="preserve"><g transform="matrix(0.9000000000000006,0,0,0.9000000000000006,25.600536202918647,25.600499725341706)"><path d="m483.687 247.651-45.38-16.393-18.867-50.125a16.98 16.98 0 0 0-14.097-10.982l-56.73-6.178-14.626-42.573a17.066 17.066 0 0 0-12.954-11.238l-63.147-12.023-30.037-40.107a17.136 17.136 0 0 0-13.653-6.827H25.609a25.043 25.043 0 0 0-25.6 25.6v331.264c-.383 14.547 11.055 26.672 25.6 27.136h147.063l-15.36 25.6h-29.303c-14.138 0-25.6 11.462-25.6 25.6s11.462 25.6 25.6 25.6h238.933c14.138 0 25.6-11.462 25.6-25.6s-11.462-25.6-25.6-25.6h-29.303l-15.36-25.6h147.064c14.545-.464 25.983-12.589 25.6-27.136V263.685a17.118 17.118 0 0 0-11.256-16.034zM25.609 68.271h188.587l30.02 40.107a17.071 17.071 0 0 0 10.462 6.537l63.147 12.023 14.635 42.59a17.116 17.116 0 0 0 14.285 11.383l56.73 6.187 18.859 50.116a17.065 17.065 0 0 0 10.18 10.044l45.363 16.427v111.787h-460.8V76.805a8.091 8.091 0 0 1 8.532-8.534zm349.867 418.134a8.533 8.533 0 0 1-8.533 8.533H128.009a8.533 8.533 0 0 1 0-17.066h238.933a8.532 8.532 0 0 1 8.534 8.533zm-57.745-25.6h-140.51l15.36-25.6h109.798zm151.612-42.667H25.609a9.522 9.522 0 0 1-8.533-10.069v-15.531h460.8v15.531a9.522 9.522 0 0 1-8.533 10.069zM486.409.005H252.596a17.067 17.067 0 0 0-13.653 27.306l22.374 29.867a17.071 17.071 0 0 0 10.462 6.537l63.147 12.023 14.635 42.59a17.135 17.135 0 0 0 14.251 11.383l56.73 6.187 18.859 50.116a17.065 17.065 0 0 0 10.18 10.044l39.552 14.31a17.067 17.067 0 0 0 22.878-16.025V25.605c-.002-14.139-11.463-25.6-25.602-25.6zm8.534 194.338-39.569-14.285-18.867-50.125a16.99 16.99 0 0 0-14.097-10.982l-56.73-6.178L351.028 70.2a17.066 17.066 0 0 0-12.954-11.238l-63.13-12.023-22.349-29.867h233.813a8.533 8.533 0 0 1 8.533 8.533v168.738z" fill="#000000" opacity="1" data-original="#000000"></path><path d="M154.821 341.338h185.31a26.702 26.702 0 0 0 23.689-14.387 27.06 27.06 0 0 0-1.707-28.015L269.432 165.15a26.65 26.65 0 0 0-43.912 0l-92.663 133.786a27.06 27.06 0 0 0-1.707 28.015 26.7 26.7 0 0 0 23.671 14.387zm-7.927-32.683 92.655-133.794a9.59 9.59 0 0 1 15.854 0l92.655 133.794a9.873 9.873 0 0 1 .631 10.385 9.532 9.532 0 0 1-8.533 5.231H154.821a9.53 9.53 0 0 1-8.533-5.231 9.871 9.871 0 0 1 .606-10.385z" fill="#000000" opacity="1" data-original="#000000"></path><g fill-rule="evenodd" clip-rule="evenodd" transform="translate(-1)"><path d="M248.476 273.071a8.533 8.533 0 0 0 8.533-8.533v-51.2a8.533 8.533 0 0 0-17.066 0v51.2a8.533 8.533 0 0 0 8.533 8.533z" fill="#000000" opacity="1" data-original="#000000"></path><circle cx="248.476" cy="298.671" r="8.533" fill="#000000" opacity="1" data-original="#000000"></circle></g></g></svg>
