<svg id="Capa_1" enable-background="new 0 0 512 512" height="512" viewBox="0 0 512 512" width="512" xmlns="http://www.w3.org/2000/svg"><g><circle cx="333.121" cy="122.187" fill="#9e3727" r="50.88"/><path d="m410.241 212.347c0-2.53-.953-4.972-2.677-6.823-18.59-19.956-45.083-32.456-74.443-32.456s-55.853 12.5-74.443 32.456c-1.725 1.851-2.677 4.293-2.677 6.823v114.897c0 8.284 6.716 15 15 15h124.24c8.284 0 15-6.716 15-15z" fill="#bfe04b"/><path d="m333.121 71.308c28.055 0 50.88 22.825 50.88 50.88s-22.825 50.88-50.88 50.88z" fill="#730d06"/><path d="m395.24 342.244c8.284 0 15-6.716 15-15l.001-114.897c0-2.53-.953-4.972-2.677-6.823-18.59-19.956-45.083-32.456-74.443-32.456v169.177h62.119z" fill="#67d360"/><circle cx="178.88" cy="122.187" fill="#faa17b" r="50.88"/><path d="m256.001 212.347c0-2.53-.953-4.972-2.677-6.823-18.59-19.956-45.083-32.456-74.443-32.456s-55.853 12.5-74.443 32.456c-1.725 1.851-2.677 4.293-2.677 6.823v114.897c0 8.284 6.716 15 15 15h124.239c8.284 0 15-6.716 15-15z" fill="#00edee"/><path d="m178.88 71.308c28.055 0 50.88 22.825 50.88 50.88s-22.825 50.88-50.88 50.88z" fill="#ef8564"/><path d="m241 342.244c8.284 0 15-6.716 15-15l.001-114.897c0-2.53-.953-4.972-2.677-6.823-18.59-19.956-45.083-32.456-74.443-32.456v169.177h62.119z" fill="#00c1e8"/><circle cx="101.76" cy="255.919" fill="#c96148" r="50.88"/><path d="m154.24 440.692c18.932 0 49.279-3.663 49.279-32.134 0-56.11-45.649-101.76-101.76-101.76s-101.759 45.65-101.759 101.761v17.134c0 8.284 6.716 15 15 15h139.24z" fill="#ffe835"/><path d="m101.76 205.039c28.055 0 50.88 22.825 50.88 50.88s-22.825 50.88-50.88 50.88z" fill="#9e3727"/><circle cx="410.24" cy="255.919" fill="#fed2c2" r="50.88"/><path d="m410.24 205.039c28.055 0 50.88 22.825 50.88 50.88s-22.825 50.88-50.88 50.88z" fill="#fbb0a8"/><circle cx="256" cy="255.919" fill="#fdc584" r="50.88"/><path d="m256 205.039c28.055 0 50.88 22.825 50.88 50.88s-22.825 50.88-50.88 50.88z" fill="#f8a671"/><path d="m154.24 440.692c18.932 0 49.279-3.663 49.279-32.134 0-56.11-45.649-101.76-101.76-101.76v133.894z" fill="#ffc833"/><path d="m357.76 440.692c-18.932 0-49.279-3.663-49.279-32.134 0-56.11 45.649-101.76 101.76-101.76s101.759 45.65 101.759 101.761v17.134c0 8.284-6.716 15-15 15h-139.24z" fill="#5699fb"/><path d="m357.657 440.692h-205.02v-32.134c0-56.11 45.986-101.76 102.51-101.76s102.51 45.649 102.51 101.76z" fill="#ff6f64"/><path d="m357.76 440.692v-32.134c0-56.11-45.649-101.76-101.76-101.76v133.894z" fill="#ff2776"/><path d="m410.24 306.799c56.11 0 101.76 45.649 101.76 101.76v17.134c0 8.284-6.716 15-15 15h-86.76z" fill="#4465f2"/></g></svg>