<svg xmlns="http://www.w3.org/2000/svg" width="22" height="22" fill="none" viewBox="0 0 22 22">
  <path fill="#FBBD00" d="M5.156 11c0-1.09.3-2.111.822-2.985V4.306H2.27A10.917 10.917 0 000 11c0 2.453.798 4.782 2.27 6.694h3.708v-3.709A5.808 5.808 0 015.156 11z"/>
  <path fill="#0F9D58" d="M11 16.844l-2.578 2.578L11 22c2.453 0 4.782-.798 6.694-2.27v-3.704h-3.705a5.842 5.842 0 01-2.989.818z"/>
  <path fill="#31AA52" d="M5.978 13.985L2.27 17.694c.291.378.609.74.952 1.084A10.928 10.928 0 0011 22v-5.156a5.846 5.846 0 01-5.022-2.859z"/>
  <path fill="#3C79E6" d="M22 11c0-.67-.06-1.34-.18-1.993l-.097-.528H11v5.156h5.219a5.816 5.816 0 01-2.23 2.39l3.705 3.705c.378-.291.74-.608 1.084-.952A10.928 10.928 0 0022 11z"/>
  <path fill="#CF2D48" d="M15.132 6.868l.456.456 3.646-3.646-.456-.456A10.928 10.928 0 0011 0L8.422 2.578 11 5.156c1.56 0 3.028.608 4.132 1.712z"/>
  <path fill="#EB4132" d="M11 5.156V0C8.062 0 5.3 1.144 3.222 3.222c-.343.343-.66.706-.952 1.084l3.708 3.709A5.846 5.846 0 0111 5.156z"/>
</svg>
