<?xml version="1.0" encoding="UTF-8"?>
<!DOCTYPE svg PUBLIC "-//W3C//DTD SVG 1.1//EN" "http://www.w3.org/Graphics/SVG/1.1/DTD/svg11.dtd">
<!-- Creator: CorelDRAW -->
<svg xmlns="http://www.w3.org/2000/svg" xml:space="preserve" width="99.9209mm" height="69.1181mm" version="1.1" style="shape-rendering:geometricPrecision; text-rendering:geometricPrecision; image-rendering:optimizeQuality; fill-rule:evenodd; clip-rule:evenodd"
viewBox="0 0 10091.87 6980.83"
 xmlns:xlink="http://www.w3.org/1999/xlink"
 xmlns:xodm="http://www.corel.com/coreldraw/odm/2003">
 <defs>
  <style type="text/css">
   <![CDATA[
    .str5 {stroke:#424242;stroke-width:35.63;stroke-miterlimit:10}
    .str2 {stroke:black;stroke-width:35.63;stroke-linejoin:round;stroke-miterlimit:10}
    .str4 {stroke:black;stroke-width:35.63;stroke-linecap:round;stroke-miterlimit:10}
    .str7 {stroke:#424242;stroke-width:35.63;stroke-linecap:round;stroke-miterlimit:10}
    .str0 {stroke:#AC1054;stroke-width:35.63;stroke-linecap:round;stroke-miterlimit:10}
    .str1 {stroke:#AC1054;stroke-width:35.63;stroke-linecap:round;stroke-miterlimit:10}
    .str6 {stroke:#1A1C2F;stroke-width:27.78;stroke-linecap:round;stroke-linejoin:round;stroke-miterlimit:10}
    .str3 {stroke:black;stroke-width:35.63;stroke-linecap:round;stroke-linejoin:round;stroke-miterlimit:10}
    .fil2 {fill:none;fill-rule:nonzero}
    .fil15 {fill:white;fill-rule:nonzero}
    .fil8 {fill:black;fill-rule:nonzero}
    .fil9 {fill:#444053;fill-rule:nonzero}
    .fil11 {fill:#444053;fill-rule:nonzero}
    .fil12 {fill:#9D9CB5;fill-rule:nonzero}
    .fil7 {fill:#A36468;fill-rule:nonzero}
    .fil3 {fill:#AC1054;fill-rule:nonzero}
    .fil16 {fill:#AC1054;fill-rule:nonzero}
    .fil4 {fill:#B77B7F;fill-rule:nonzero}
    .fil6 {fill:#DB9C7E;fill-rule:nonzero}
    .fil5 {fill:#DDA2A6;fill-rule:nonzero}
    .fil14 {fill:#E3787D;fill-rule:nonzero}
    .fil1 {fill:#E51670;fill-rule:nonzero}
    .fil0 {fill:#FDE8F1;fill-rule:nonzero}
    .fil13 {fill:#FFD037;fill-rule:nonzero}
    .fil10 {fill:white;fill-rule:nonzero}
   ]]>
  </style>
 </defs>
 <g id="Layer_x0020_1">
  <metadata id="CorelCorpID_0Corel-Layer"/>
  <path class="fil0" d="M7958.82 2836.66c0,1566.64 -1781.64,2836.66 -3979.4,2836.66 -2197.77,0 -3979.41,-1270.02 -3979.41,-2836.66 0,-1566.64 1781.64,-2836.67 3979.41,-2836.67 2197.76,0 3979.4,1270.03 3979.4,2836.67z"/>
  <path class="fil0" d="M10091.87 6579.74c0,139.2 -813.31,252.03 -1816.58,252.03 -1003.27,0 -1816.58,-112.84 -1816.58,-252.03 0,-139.2 813.31,-252.04 1816.58,-252.04 1003.27,0 1816.58,112.85 1816.58,252.04z"/>
  <path class="fil0" d="M7749.46 6701.36c0,154.35 -1469.29,279.47 -3281.75,279.47 -1812.45,0 -3281.75,-125.13 -3281.75,-279.47 0,-154.35 1469.3,-279.47 3281.75,-279.47 1812.46,0 3281.75,125.13 3281.75,279.47z"/>
  <path class="fil1" d="M5095.12 1747.95c0,0 -60.74,352.48 -503.24,806.2 0,0 -48.89,-60.53 35.71,-311.28 84.61,-250.76 442.28,-580.31 467.52,-494.92z"/>
  <path class="fil2 str0" d="M5095.12 1747.95c0,0 -398.19,284.82 -503.24,806.2 0,0 -20.36,178.82 40.91,333.73"/>
  <path class="fil1" d="M4024.86 2032.7c0,0 111.7,-84.66 -80.48,-296.07 -182.56,-200.83 -375.85,-380.92 -753.63,-446.9 0,0 114.02,511.7 360.18,633.68 246.17,121.97 473.93,109.29 473.93,109.29z"/>
  <path class="fil1" d="M3107.91 2408.95c0,0 394.15,85.98 1062.63,-137.11 0,0 -41.45,-69.1 -340.15,-92.34 -298.69,-23.24 -800.27,172.03 -722.47,229.45z"/>
  <path class="fil2 str0" d="M3107.91 2408.95c0,0 472.89,-250.34 1062.63,-137.11 0,0 60.65,15.18 122.43,97.7"/>
  <path class="fil1" d="M3434.59 2766.05c0,0 421.79,277.65 1090.26,54.57 0,0 -130.01,-235.18 -428.7,-258.43 -298.7,-23.24 -739.36,146.43 -661.56,203.86z"/>
  <path class="fil2 str0" d="M3434.59 2766.05c0,0 454.61,-212.12 1090.26,54.57 0,0 74.75,33.27 136.52,115.77"/>
  <path class="fil3" d="M4862.28 1414.18c0,0 124.47,-14.92 -179.29,266.09 -286.83,265.33 -250.37,267.4 -250.37,267.4 0,0 108.83,-397.05 429.66,-533.49z"/>
  <path class="fil1" d="M4223.96 2082.09c0,0 92.97,35.85 260.66,-118.04 167.69,-153.9 230.21,-496.86 377.66,-549.87 0,0 -369.95,119.51 -638.32,667.9z"/>
  <path class="fil2 str0" d="M4833.66 3260.46c-189.13,-380.99 -451.73,-813.82 -808.8,-1227.76 0,0 -87.73,-114.89 -392.48,-412.7 -304.77,-297.8 -441.63,-330.27 -441.63,-330.27"/>
  <path class="fil2 str1" d="M4818.59 1432.44c0,0 -352.03,153.62 -594.63,649.64 -58.77,120.17 11.54,215.27 69,287.45"/>
  <g id="_105553132124608">
   <path class="fil1" d="M8028.68 5544.42c0,0 -294.23,217.12 -972.18,57.76 0,0 1.8,-108.74 245.11,-213.32 243.31,-104.59 765.52,54.85 727.07,155.56z"/>
   <path class="fil2 str0" d="M8007.64 5524.61c0,0 -464.31,-155.17 -948.09,65.81 0,0 -156.71,88.48 -246.16,229.03"/>
   <path class="fil1" d="M7047.65 5066.76c0,0 134.11,40.74 192.45,-238.94 55.44,-265.69 87.77,-527.87 -80.56,-872.46 0,0 -347.34,392.67 -301.59,663.56 45.74,270.89 189.7,447.84 189.7,447.84z"/>
   <path class="fil1" d="M8044.88 5171.59c0,0 103.47,70.77 -310.18,82.11 -390.59,10.7 -364.51,36.27 -364.51,36.27 0,0 343.42,-227.04 674.69,-118.38z"/>
   <path class="fil1" d="M7124.65 5253.65c0,0 46.33,88.21 273.88,82.88 227.54,-5.32 500.49,-222.19 646.35,-164.94 0,0 -357.07,-153.77 -920.23,82.06z"/>
   <path class="fil2 str0" d="M6528.43 6442.25c197.43,-376.77 393.7,-843.43 519.22,-1375.49 0,0 41.52,-138.46 103.74,-560.01 62.22,-421.55 8.16,-551.39 8.16,-551.39"/>
   <path class="fil2 str0" d="M7999.97 5156.55c0,0 -366.06,-116.3 -875.32,97.1 -123.37,51.7 -158.39,133.34 -210.52,284.69"/>
  </g>
  <path class="fil4" d="M3339.84 3034.2c-95.22,0 -187.42,-33.42 -260.54,-94.42l-202.87 -169.28c-73,-60.91 -159.72,-93.55 -248.56,-93.55l-1006.8 0c-91.36,0 -165.43,74.06 -165.43,165.43l0 191.84 0 3453.06c0,157.66 127.8,285.46 285.45,285.46l5018.87 0c122.62,0 222.03,-99.4 222.03,-222.04l0 -3294.46c0,-122.62 -99.4,-222.03 -222.03,-222.03l-3420.13 0z"/>
  <path class="fil5" d="M6981.98 6569.29c0,0 -341.56,-640.7 -375.72,-714.28l-933.48 -1901.74c-23.47,-50.53 -74.12,-82.86 -129.84,-82.86l-3468.89 0c-126.11,0 -308.5,-66.1 -405.33,-146.9l-139.98 -116.8c-73,-60.91 -159.72,-93.55 -248.56,-93.55l-958.13 0c-101.99,0 -171.26,103.61 -132.3,197.86l1158.6 2802.19c64.94,157.07 218.16,259.53 388.13,259.53l5182.85 0c33.79,0 64.98,-28.95 64.97,-62.73l-2.32 -140.7z"/>
  <line class="fil2 str2" x1="5571" y1="4051.23" x2="6940.79" y2= "6713.95" />
  <line class="fil2 str2" x1="5006.59" y1="4510.09" x2="3826.66" y2= "4510.09" />
  <path class="fil2 str2" d="M3826.66 4510.09c-32.18,0 -62.11,-16.19 -79.38,-42.92"/>
  <path class="fil2 str2" d="M3747.28 4467.17c-39.86,-61.69 5.13,-142.43 79.38,-142.43"/>
  <line class="fil2 str2" x1="3826.66" y1="4324.74" x2="5006.59" y2= "4324.74" />
  <path class="fil2 str2" d="M5006.59 4324.74c32.18,0 62.12,16.19 79.39,42.92"/>
  <path class="fil2 str2" d="M5085.98 4367.66c39.86,61.69 -5.14,142.43 -79.39,142.43"/>
  <g id="_105553132002688">
   <g>
    <line class="fil2 str3" x1="2799.41" y1="5425.26" x2="3718.09" y2= "5972.59" />
    <line class="fil2 str3" x1="3550.53" y1="5398.89" x2="2973.27" y2= "5975.89" />
   </g>
   <path class="fil2 str3" d="M3545.73 5252.16c337.57,166.83 477.62,500.11 312.84,744.43 -164.79,244.31 -572.03,307.13 -909.59,140.3 -337.57,-166.82 -477.62,-500.1 -312.83,-744.42 164.78,-244.32 572.02,-307.13 909.58,-140.31z"/>
  </g>
  <g id="_105553132018272">
   <g>
    <path class="fil6" d="M8003.33 3035.99c22.03,-95.22 -79.3,-213.95 -175.23,-195.23 -78.09,15.24 -116.98,33.96 -129.52,38.1 -24.52,8.08 -207.6,-3.83 -228.57,26.66 -15.18,22.08 80.32,47.59 141.42,53.68 12.58,1.24 16.29,17.68 5.54,24.34 -60.03,37.23 -179.52,112.88 -189.7,131.56 -13.63,25.06 -75.71,122.45 -58.22,133.27 17.49,10.82 70.39,-37.83 104.77,-72.38 34.37,-34.55 134.81,-63.91 134.81,-63.91 0,0 -174.65,175.3 -197.67,223.9 -34.29,72.38 65.18,40.63 65.18,40.63 -15.56,40.89 66.01,31.93 85.29,16.5 38.09,-30.47 155.83,-172.57 156.18,-158.08 0.35,14.47 -121.65,169.27 -109.29,205.44 12.36,36.16 61.69,-9.21 90.24,-47.36 28.54,-38.15 112.37,-144.75 112.37,-144.75 0,0 95.24,-69.53 174.74,-189.59 0.65,-0.97 17.38,-21.65 17.64,-22.79z"/>
    <line class="fil2 str4" x1="7480.5" y1="3372.68" x2="7647.15" y2= "3174.08" />
   </g>
   <path class="fil7" d="M6750.57 2472.65l599.45 -373.99c3.72,-2.42 7.26,-5.11 10.59,-8.04l197.68 -203.41c43.03,-37.7 109.41,-28.92 141.15,18.68l96.89 145.34c20.51,30.77 21.23,70.68 1.82,102.17l-139.13 225.72c-10.24,16.62 -25.23,29.6 -43.18,37.29 -111.94,47.94 -539.59,228.57 -794.69,300.63 -63.36,17.9 -124.92,-33.67 -119.37,-99.26l6.25 -73.88c2.45,-29.03 18.15,-55.31 42.53,-71.25z"/>
   <path class="fil8" d="M8131.16 6209.61l-31.7 215.35c0,0 -593.99,228.18 -538.9,231.48 55.1,3.3 908.72,-46.37 908.72,-46.37l-50.24 -390.96 -287.89 -9.5z"/>
   <path class="fil2 str5" d="M8296.64 2724.65c0,0 47.33,455.59 82.83,479.26 35.5,23.67 82.84,35.51 82.84,35.51"/>
   <polyline class="fil2 str5" points="8462.31,3239.42 8385.38,2718.73 8296.64,2724.65 "/>
   <path class="fil9" d="M9234.64 2411.49c0,0 240.76,490.28 170.86,763.44l-1334.63 -183.59 27.85 -509.33 1135.92 -70.53z"/>
   <path class="fil2 str0" d="M9271.29 2510.8c0,0 -188.65,349.34 -549.63,377.29"/>
   <path class="fil2 str0" d="M8969.31 2813.57c0,0 73.12,226.45 285.41,231.13"/>
   <path class="fil9" d="M8070.88 2991.34c0,0 -357.57,1272.99 -366.85,1682.82l261.26 1578.8c0,0 249.22,123.92 508.8,23.78 10.65,-4.11 -131.59,-818.85 -141.6,-1657.73l746.19 -1561.29 -1007.8 -66.38z"/>
   <path class="fil9" d="M9411.39 3121.53l-52.56 1536.17 587.74 1606.01c0,0 -245.94,207.78 -556.6,18.67l-638.11 -1529.22 65.46 -1112.69 -278.09 -168.38 -41.42 -481.92 913.58 131.37z"/>
   <polygon class="fil10" points="8378.56,2840.76 8661.89,3054.23 9068.05,2600.76 8081.42,2741.71 8322.85,3061.84 "/>
   <path class="fil8" d="M9531.27 6183.64l-51.28 185.8c0,0 -374.73,406.45 -319.51,406.45 55.22,0 670.57,-251.61 670.57,-251.61l-78.89 -387.09 -220.89 46.45z"/>
   <path class="fil2 str0" d="M9186.68 2628.8c0,0 162.08,398.41 45.3,2069.67 0,0 409.37,900.93 621.63,1613.51"/>
   <polyline class="fil2 str0" points="8591,3511.89 8182.47,4649.85 8357.66,6311.99 "/>
   <g>
    <g>
     <path class="fil6" d="M6809.25 2697.32c0,0 7.94,39.86 -80.3,70.29 -88.23,30.43 -140.17,20.77 -140.17,20.77 0,0 -197.95,-233.47 -206.73,-241.72 -8.79,-8.25 6.17,-98.03 64.73,-133.98 35.56,-21.83 173.47,13.77 276.33,45.09 71.71,21.85 115.96,93.66 103.9,167.65 -4.74,29.08 -10.65,56.02 -17.76,71.91z"/>
     <path class="fil6" d="M6646.9 2635.36c0,0 -161.84,-23.48 -230.23,-79.87 0,0 -102.21,-20.6 -123.93,-7.71 -21.72,12.9 -39.51,31.2 -86.51,39.13 -46.99,7.94 -32.82,-23.36 16.54,-67.76 14.11,-12.69 51.84,-58.29 84.58,-64.45 44.08,-8.3 139.42,-42.03 139.42,-42.03l191.31 228.72 8.81 -6.04z"/>
     <path class="fil6" d="M6588.78 2788.38c0,0 -65.62,41.17 -88.7,40.06 -23.09,-1.12 -44.87,-14.88 -50.52,-52.81 0,0 -122.22,22.44 -83.49,-70.04 0,0 -73.82,-11.98 -75.8,-60.15 0,0 -65.57,-32.67 -51.23,-85.05 14.33,-52.38 220.06,-47.64 220.06,-47.64l218.3 110.84 -88.63 164.81z"/>
     <path class="fil2 str6" d="M6542.42 2797.13c0,0 62.34,-55.28 58.87,-77.45 -3.46,-22.17 -15.18,-34.36 -29.33,-30.12 -18.98,5.7 -91.24,60.8 -122.4,86.05"/>
     <path class="fil2 str6" d="M6366.08 2705.58c0,0 166.04,-25.94 167.58,-50.52 1.54,-24.6 -10.06,-57.05 -44.75,-50.15 -41.23,8.21 -159.42,36.51 -198.62,35.74"/>
     <path class="fil2 str6" d="M6571.97 2689.57c0,0 30.51,-18.94 18.44,-40.11 -12.07,-21.17 -28.56,-28.6 -63.87,-19.42"/>
     <path class="fil2 str6" d="M6286.95 2571.31c0,0 9.08,-11.81 21.92,-23.89"/>
    </g>
    <path class="fil11" d="M6647.05 2879.2l-2.86 1.61c-22.36,12.57 -50.68,4.65 -63.27,-17.73l-431.66 -767.55 83.83 -47.15 431.67 767.55c12.57,22.37 4.65,50.69 -17.72,63.27z"/>
    <path class="fil11" d="M6362.64 2218.9l36.23 64.43c9.83,17.46 5.38,38.61 -9.94,47.22l-78.26 44.03c-15.32,8.61 -35.69,1.42 -45.52,-16.05l-37.8 -67.21 135.3 -72.41z"/>
    <path class="fil11" d="M6195.15 1588.52c-149.73,-277.78 -337.42,-469 -456.72,-477.94l3.94 -26.37 -62.34 40.63c-107.13,72.95 -50.2,398.83 127.17,727.88 177.36,329.03 407.99,536.64 515.12,463.67l58.61 -39.06 -16.88 -22.59c41.23,-127.45 -23.09,-395.7 -168.91,-666.23z"/>
    <path class="fil12" d="M6257.5 1547.88c177.35,329.03 234.3,654.92 127.17,727.88 -107.13,72.95 -337.76,-134.64 -515.11,-463.68 -177.36,-329.03 -234.3,-654.92 -127.18,-727.87 107.13,-72.96 337.76,134.63 515.12,463.67z"/>
    <path class="fil13" d="M6198.3 1588.19c144.34,267.79 201.02,525.96 126.58,576.65 -74.45,50.69 -251.8,-125.29 -396.14,-393.08 -144.35,-267.79 -201.02,-525.96 -126.58,-576.65 74.44,-50.69 251.79,125.3 396.14,393.08z"/>
    <path class="fil6" d="M6646.9 2635.36c0,0 -161.84,-23.48 -230.23,-79.87 0,0 -102.21,-20.6 -123.93,-7.71 -21.72,12.9 -39.51,31.2 -86.51,39.13 -46.99,7.94 -32.82,-23.36 16.54,-67.76 14.11,-12.69 51.84,-58.29 84.58,-64.45 44.08,-8.3 139.42,-42.03 139.42,-42.03l191.31 228.72 8.81 -6.04z"/>
    <path class="fil2 str6" d="M6646.9 2635.36c0,0 -161.84,-23.48 -230.23,-79.87 0,0 -102.21,-20.6 -123.93,-7.71 -21.72,12.9 -39.51,31.2 -86.51,39.13"/>
    <path class="fil11" d="M6198.3 1588.19c-144.35,-267.78 -321.7,-443.77 -396.14,-393.08 -5.88,4.01 -10.85,9.44 -15.11,15.94 86.04,5.22 236.56,168.62 362.12,401.57 132.94,246.63 191.42,484.97 141.68,560.7 12.88,0.79 24.33,-1.89 34.03,-8.48 74.44,-50.69 17.76,-308.86 -126.58,-576.65z"/>
    <path class="fil10" d="M6097.8 1483.24c76.79,142.45 106.94,279.79 67.34,306.75 -39.59,26.97 -133.93,-66.65 -210.72,-209.1 -76.78,-142.45 -106.94,-279.79 -67.34,-306.75 39.6,-26.97 133.94,66.65 210.72,209.1z"/>
   </g>
   <path class="fil7" d="M8969.02 1941.74l-119.08 -424.91c-43.72,-155.98 -120.34,-300.31 -221.58,-426.77 -179.32,-224 -650.38,-203.62 -650.38,-203.62l-362.41 260.79c-1.11,0.61 -2.21,1.21 -3.33,1.83 -213.38,117.75 -252.59,299.38 -246.98,579.36l13.21 378.04 245.35 -234.31 61.92 84.91c-0.27,-2.45 -0.5,-4.73 -0.72,-6.93l29.33 46.16 -28.61 -39.23c8.69,78 49.36,276.64 238.45,369.43l107.73 169.53 -28.57 234.28c1011.04,367.65 1262.83,-354.27 1262.83,-354.27l-297.14 -434.27z"/>
   <line class="fil2 str4" x1="7571.91" y1="1833.16" x2="7704.29" y2= "1995.06" />
   <path class="fil2 str4" d="M7704.29 1995.06c0,0 -18.1,249.52 233.33,329.52"/>
   <path class="fil7" d="M8576.65 2162.68l-769.51 670.46c0,0 152.38,213.33 220.95,220.94l921.87 -586.65 -373.32 -304.75z"/>
   <path class="fil2 str4" d="M8035.71 2627.43c0,0 419.03,-472.37 563.79,-540.94"/>
   <path class="fil2 str4" d="M8377.6 1653.17c0,0 20.01,105.71 154.29,477.13"/>
   <path class="fil2 str4" d="M8134.76 2993.13c0,0 860.92,-548.55 868.55,-708.56 7.62,-159.99 -217.15,-902.83 -217.15,-902.83"/>
   <path class="fil2 str4" d="M8229.04 2216.01c0,0 207.22,19.51 271.41,-168.57"/>
   <path class="fil2 str4" d="M7389.89 2075.96c0,0 57.13,-57.14 114.27,7.63"/>
   <path class="fil10" d="M6711.93 2453.15l121.91 -57.14c0,0 148.57,161.9 95.23,300.95l-148.56 43.8c0,0 68.57,-152.38 -68.58,-287.6z"/>
   <path class="fil10" d="M7855.71 2747.42c0,0 160,68.57 274.28,265.71l-122.85 94.28c0,0 -151.43,-217.14 -257.13,-251.42l105.71 -108.57z"/>
   <g>
    <path class="fil10" d="M7721.43 861.76l504.75 37.15c0,0 19.13,277.63 -285.67,522.48l-136.88 -132.99 -74.58 161.93c0,0 -115.83,-65.16 -131.44,-252.19l24.61 -227.05 99.21 -109.31z"/>
    <path class="fil6" d="M7977.98 886.43c18.41,15.7 27.15,39.87 22.88,63.69 -16.21,90.35 -65.2,309.07 -163.45,336.55 -124.24,34.76 -201.73,-210.61 -201.73,-210.61l61.95 -428.58 280.35 238.95z"/>
    <g>
     <path class="fil8" d="M7584.38 988.06l-1.53 62.41c-1.16,0.64 -22.37,184.85 39.53,191.96 258.75,-46.78 275.02,-292.1 297.16,-535.57 0,0 -360.27,232.59 -335.16,281.2z"/>
     <path class="fil6" d="M7153.61 528.55c0,0 -63.05,600.92 310.27,704.33 373.33,103.42 462.78,-505.4 449.9,-715.95 -12.88,-210.55 -106.73,-288.87 -368.38,-298.3 -387.1,-13.96 -391.78,309.91 -391.78,309.91z"/>
     <path class="fil8" d="M7489.01 818.91c1.07,21.62 -9.21,39.72 -22.96,40.43 -13.75,0.7 -25.75,-16.27 -26.82,-37.9 -1.07,-21.62 9.21,-39.73 22.96,-40.43 13.75,-0.7 25.75,16.27 26.82,37.9z"/>
     <path class="fil2 str4" d="M7530.02 708.19c0,0 -123.34,53.69 -135.43,-39.56"/>
     <path class="fil2 str4" d="M7244.89 708.43c0,0 -40.73,70.74 -87.59,39.31"/>
     <path class="fil2 str4" d="M7179.37 834.08c0,0 23.31,-7.53 57.5,10.53"/>
     <path class="fil2 str4" d="M7544.91 1058.22c0,0 33.62,-32.16 61.4,-39.47"/>
     <path class="fil2 str4" d="M7292.57 903.31c0,0 -21.44,48.72 33.14,72.11"/>
     <path class="fil14" d="M7149.23 657.73c0,0 6.33,-175.97 84.29,-275.37 0,0 107.2,243.64 569.15,293.35l134.5 -28.26c0,0 55.06,-282.14 -137.9,-393.25 -192.97,-111.1 -488.28,-49.7 -583.29,50.19 -161.07,169.36 -66.75,353.34 -66.75,353.34z"/>
     <polygon class="fil8" points="7713.02,643.54 7792.93,801.42 7849.46,624.05 "/>
     <path class="fil6" d="M7992.34 785.02c-23.03,83.98 -89.09,139.5 -147.57,124 -58.48,-15.49 -87.22,-96.14 -64.2,-180.12 23.03,-83.97 89.09,-139.49 147.57,-124 58.48,15.49 87.22,96.14 64.2,180.12z"/>
     <path class="fil2 str3" d="M7933.64 711.91c0,0 -65.76,-56.59 -101.7,46.88 0,0 38.42,40.76 14.17,72.78 0,0 37.88,8.59 56.57,-24.82"/>
     <path class="fil2 str3" d="M7905.17 751.49c0,0 -3.66,-23 -29.19,-49.23"/>
     <path class="fil10" d="M7937.17 906.19c0,31.49 -25.53,57.01 -57.01,57.01 -31.49,0 -57.01,-25.52 -57.01,-57.01 0,-31.48 25.52,-57.01 57.01,-57.01 31.48,0 57.01,25.53 57.01,57.01z"/>
     <path class="fil14" d="M7777.34 327.78c0,0 70.16,-366.43 233.89,-296.27 163.73,70.17 237.8,421.01 81.87,448.3 -155.93,27.29 -276.79,-46.77 -276.79,-46.77l-38.98 -105.26z"/>
     <path class="fil2 str4" d="M7779.29 433.04c0,0 270.93,226.1 358.64,17.54"/>
    </g>
   </g>
   <line class="fil2 str7" x1="8803.18" y1="3631.8" x2="8489.54" y2= "3454.8" />
  </g>
  <path class="fil15" d="M1684.4 1307.41c338.88,9.24 619.27,280.67 638.77,619.12 11.47,199.02 -65.65,380.11 -195.44,507.87 -19.18,18.88 -28.09,45.79 -23.61,72.31l48.75 288.45 -299.91 -174.74c-17.09,-9.97 -37.22,-13.6 -56.59,-9.71 -73.31,14.79 -150.99,17.51 -231.04,5.38 -296.29,-44.88 -527.43,-290.17 -554.75,-588.57 -36.42,-397.72 281.25,-730.83 673.83,-720.13z"/>
  <g id="_105553132097792">
   <path class="fil16" d="M1635.98 2193.31l-1.86 -157.38c22.96,-5.6 43.91,-12.88 62.85,-21.89 18.93,-8.99 35.54,-19.39 49.82,-31.2 14.27,-11.79 26.23,-24.98 35.85,-39.58 9.63,-14.57 16.9,-30.26 21.89,-47.02 4.96,-16.76 7.45,-34.45 7.45,-53.07 0,-26.68 -6.52,-51.83 -19.57,-75.44 -13.02,-23.58 -31.65,-42.67 -55.86,-57.27 -24.21,-14.58 -53.07,-21.9 -86.61,-21.9 -36.02,0 -69.37,9.95 -100.11,29.8 -30.73,19.88 -54.18,53.71 -70.31,101.5l-16.77 -11.17c14.28,-45.31 38.19,-80.08 71.71,-104.3 33.53,-24.21 71.7,-36.32 114.54,-36.32 36.63,0 68.75,7.78 96.38,23.29 27.62,15.52 49.19,36.48 64.72,62.85 15.51,26.39 23.29,56.03 23.29,88.94 0,24.84 -4.19,48.13 -12.57,69.84 -8.38,21.73 -20.19,41.6 -35.4,59.6 -15.2,18.02 -33.67,33.68 -55.41,47.02 -21.74,13.36 -46.25,23.44 -73.57,30.27l-1.85 143.41 -18.63 0zm-11.17 117.34l0 0c0,-8.07 2.17,-14.75 6.5,-20.02 4.34,-5.27 10.26,-7.93 17.71,-7.93 8.69,0 14.89,2.5 18.63,7.46 3.72,4.97 5.58,11.8 5.58,20.48 0,7.44 -2.02,13.97 -6.04,19.56 -4.07,5.58 -10.11,8.37 -18.17,8.37 -8.08,0 -14.13,-2.49 -18.17,-7.45 -4.04,-4.96 -6.04,-11.79 -6.04,-20.48z"/>
  </g>
 </g>
</svg>
