<?xml version="1.0" encoding="UTF-8"?>
<!DOCTYPE svg PUBLIC "-//W3C//DTD SVG 1.1//EN" "http://www.w3.org/Graphics/SVG/1.1/DTD/svg11.dtd">
<!-- Creator: CorelDRAW -->
<svg xmlns="http://www.w3.org/2000/svg" xml:space="preserve" width="127.157mm" height="70.0939mm" version="1.1" style="shape-rendering:geometricPrecision; text-rendering:geometricPrecision; image-rendering:optimizeQuality; fill-rule:evenodd; clip-rule:evenodd"
viewBox="0 0 11689.51 6443.72"
 xmlns:xlink="http://www.w3.org/1999/xlink"
 xmlns:xodm="http://www.corel.com/coreldraw/odm/2003">
 <defs>
  <style type="text/css">
   <![CDATA[
    .fil30 {fill:#1D2A4C}
    .fil17 {fill:#1D3F77}
    .fil23 {fill:#202E51}
    .fil31 {fill:#233862}
    .fil18 {fill:#2A4E96}
    .fil7 {fill:#2B478B}
    .fil22 {fill:#2C3A64}
    .fil27 {fill:#35488B}
    .fil21 {fill:#415DA5}
    .fil26 {fill:#5885D6}
    .fil4 {fill:#739AF0}
    .fil24 {fill:#739CF3}
    .fil3 {fill:#79B27F}
    .fil5 {fill:#7FAAF7}
    .fil10 {fill:#83AFFC}
    .fil1 {fill:#A8D29F}
    .fil29 {fill:#AA3E39}
    .fil16 {fill:#AEC3FF}
    .fil28 {fill:#B84C42}
    .fil19 {fill:#C0D8FB}
    .fil9 {fill:#CCDBFD}
    .fil8 {fill:#D4DFFF}
    .fil15 {fill:#E88338}
    .fil20 {fill:#E8945B}
    .fil0 {fill:#EBF3FA}
    .fil13 {fill:#ED9F4A}
    .fil14 {fill:#EFCDAF}
    .fil2 {fill:#F8FCFF}
    .fil6 {fill:#F99746}
    .fil11 {fill:#F9DDBF}
    .fil25 {fill:#FFB27D}
    .fil12 {fill:#FFF3E9}
   ]]>
  </style>
 </defs>
 <g id="Layer_x0020_1">
  <metadata id="CorelCorpID_0Corel-Layer"/>
  <path class="fil0" d="M11464.42 5380.25l-0.17 3.13c-4.69,91.36 -16.98,177.69 -34.99,258.87 -95.18,429.46 -343.48,703.83 -405.4,770.32l-0.12 0.13c-8.38,9.02 -13.54,14.18 -14.18,15.51 -269.05,0 -2008.39,0.3 -3990.47,-0.26 -534.28,-0.13 -1086.17,-0.34 -1631.7,-0.69 -247.73,-0.13 -494.13,-0.26 -736.96,-0.42 -176.84,-0.13 -351.78,-0.3 -523.92,-0.43 -653.5,-0.56 -1267.23,-1.29 -1793.6,-2.23 -281.76,-0.51 -538.48,-1.08 -762.93,-1.77 -597.61,-1.67 -965.89,-3.82 -967,-6.62l-0.64 -1.93c0,0 -0.55,-0.56 -0.6,-1.16l-0.05 -0.13c0,-0.64 -0.69,-1.33 -0.69,-1.33 -1.58,-3.7 -345.88,-479.83 -448.24,-1133.04 -23.72,-151.48 -34.46,-312.45 -24.89,-479.27l0 -2.62c35.84,-615.24 347.39,-1308.63 1299.53,-1897.13 909.8,-563.11 -57.37,-934.56 666.06,-1561.52 477.69,-413.31 980.56,-326.38 1497.35,-239.45 382.83,64.39 773.31,128.78 1166.81,-10.18 162.95,-57.97 327.2,-150.53 491.43,-292.59 92.53,-80.14 193.55,-150.53 301.7,-210.52 16.98,-9.75 33.26,-18.9 50.19,-27.38 65.2,-33.86 132.31,-64.5 202.05,-91.87 46.24,-18.26 93.81,-35.19 142.07,-50.83 76.88,-25.4 155.73,-46.93 235.92,-64.51 114.05,-26.08 232,-44.99 351.9,-58.01 52.17,-5.88 104.98,-10.44 158.4,-13.71 978.69,-61.71 2073.83,264.4 2696.71,754.5 34.55,27.17 67.59,54.84 99.14,82.99 13.06,11.68 31.11,28.66 52.42,50.62 145.38,149.8 441.41,531.05 319.2,1046.58 -10.43,43.96 -23.89,88.95 -40.73,134.81 -24.14,65.66 -55.22,133.17 -94.33,202.4 -60.58,107.51 -51.48,213.09 3.27,320.01l0.61 0.64 0.04 0c3.01,5.76 6.14,11.52 9.4,17.28 11.44,20.15 24.5,40.35 39.02,60.59 8.26,11.6 17.02,23.16 26.26,34.71 2.28,2.89 4.6,5.76 6.96,8.69 4.73,5.8 9.54,11.56 14.48,17.36l0.01 0.05c3.95,4.64 7.94,9.24 12.02,13.88 4.04,4.63 8.16,9.28 12.42,13.96 4.22,4.64 8.47,9.24 12.81,13.88 4.3,4.63 8.68,9.28 13.16,13.96 4.47,4.64 8.98,9.28 13.53,13.92 4.56,4.64 9.19,9.28 13.88,13.93l0.05 0c78.64,78.08 100.33,176.53 120.7,291.56 7.96,44.82 15.68,92.22 26.56,141.86 0.48,2.19 0.98,4.42 1.46,6.66 9.33,41.81 20.97,85.22 36.86,130.07 0.74,2.2 1.55,4.43 2.36,6.66 14.1,38.98 31.46,79.07 53.37,120.19 2.03,3.82 4.08,7.66 6.23,11.48l0 0.04c1.64,3.05 3.31,6.06 5.07,9.11 1.25,2.23 2.49,4.43 3.78,6.66 2.15,3.78 4.39,7.57 6.66,11.34l0.05 0.08c0.91,1.54 1.85,3.18 2.88,4.77 15.66,26.08 33.31,52.56 53.25,79.37 8.69,11.77 17.83,23.64 27.46,35.53 51.4,63.64 115.85,129.26 197.33,196.47 107.35,88.61 244.29,180.05 419.88,273.73 27.94,14.91 54.87,30.04 80.74,45.34 244.09,144.16 397.02,304.37 451.72,485.15 7.73,25.53 20.79,75.42 33.39,135.37 19.3,91.87 37.39,207.47 33.05,295.43z"/>
  <path class="fil1" d="M11463.98 5380.15c0.13,1.08 0.17,2.15 0.26,3.23 -4.68,91.36 -16.97,177.69 -34.98,258.87l-483.01 75.76 -99.69 15.64 -56.72 8.9 -392.98 61.67 -35.14 5.5 -79.03 12.42 -20.54 3.22 -0.14 0c0,0 -16.93,1.98 -46.32,4.77 -2.45,0.26 -5.03,0.48 -7.65,0.74 -19.54,1.8 -43.79,3.91 -71.59,6.01 -10.43,0.82 -21.4,1.59 -32.78,2.36 -2.14,0.13 -4.3,0.3 -6.49,0.43 -15.94,1.08 -32.66,2.06 -50.11,3.05 -35.92,1.93 -74.68,3.61 -115.03,4.6 -15.68,0.39 -31.62,0.69 -47.7,0.9 -8.37,0.09 -16.84,0.13 -25.31,0.13 -10.18,0.05 -20.41,0.05 -30.68,-0.04 -15.17,-0.09 -30.43,-0.35 -45.64,-0.74 -11.16,-0.26 -22.38,-0.6 -33.52,-0.98 -15.55,-0.61 -31.06,-1.38 -46.5,-2.28 -2.35,-0.13 -4.73,-0.3 -7.09,-0.48 -7.17,-0.42 -14.35,-0.9 -21.48,-1.45 -35.4,-2.67 -69.96,-6.32 -102.83,-11.18 -5.54,-0.82 -11,-1.67 -16.42,-2.57 -123.62,-20.2 -220.18,-58.74 -242.4,-127.75 -20.2,-63.22 23.46,-153.16 167.51,-278.24 23.98,-20.8 48.99,-40.74 74.9,-59.78 167.17,-122.9 372.96,-210 588.59,-271.5 8.94,-2.57 17.88,-5.07 26.86,-7.52 1.38,-0.39 2.75,-0.77 4.13,-1.16 2.45,-0.64 4.89,-1.33 7.35,-1.98 4.86,-1.33 9.71,-2.62 14.52,-3.87 8.51,-2.28 17.02,-4.51 25.57,-6.66 43.07,-11 86.38,-21.02 129.69,-30.13 10.92,-2.33 21.82,-4.56 32.74,-6.75 5.12,-1.03 10.23,-2.06 15.31,-3.05 3.52,-0.73 7.04,-1.42 10.57,-2.06 5.37,-1.04 10.74,-2.06 16.11,-3.05 180.49,-34.08 359.21,-53.67 519.96,-64.46 181.05,-12.2 339.35,-13.19 451.72,-11.22 12.99,31.38 24.07,79.2 33.39,135.37 14.75,88.22 25.31,197.11 32.62,295.34z"/>
  <path class="fil2" d="M6040.87 1318.44c0,0 138.97,-287.38 471.27,-255.45 0,0 482.45,-478.99 996.91,-63.86 0,0 546.86,-102.86 951.82,89.06 270.04,127.96 359.25,262.19 359.25,262.19l-2779.26 -31.94z"/>
  <path class="fil2" d="M5554.34 3875.35c0,0 187.61,-325.25 636.24,-289.11 0.01,0 651.37,-542.11 1345.97,-72.28 0.01,-0.01 738.31,-116.42 1285.12,100.81 364.58,144.82 484.98,296.72 484.98,296.72l-3752.32 -36.15z"/>
  <path class="fil3" d="M8645.79 2440.19c0,0 -141.89,-243.15 -480.69,-182.95 -338.83,60.2 -248.68,451.69 -436.16,635.71 -187.53,184.03 -351.04,347.99 -270.51,607.95 80.48,259.98 -347.04,315.54 -345.79,708.14 1.24,392.55 92.6,623.95 618.15,654.5 525.59,30.55 1366.25,-108.33 1480.08,-266.69 113.84,-158.35 94.72,-505.99 -191.13,-949.59 -285.81,-443.59 -24.67,-483.39 -215.68,-740.26 -191.06,-256.88 -56.56,-361.02 -158.27,-466.81z"/>
  <path class="fil2" d="M2257.25 2034.19c0,0 123.37,-213.87 418.37,-190.1 0,0 428.29,-356.46 885.01,-47.53 0,0 485.47,-76.54 845.02,66.27 239.74,95.23 318.9,195.12 318.9,195.12l-2467.29 -23.76z"/>
  <polygon class="fil4" points="6202.48,5713.57 6102.75,5713.57 6124.23,2885.69 6174.77,2885.69 "/>
  <polygon class="fil5" points="6143.27,2900.74 5418.07,3521.75 5136.22,3763.12 5114.86,3741.54 5364.44,3464.81 5773.24,3011.44 6096.35,2842.16 "/>
  <polygon class="fil6" points="5418.07,3521.75 5136.22,3763.12 5114.86,3741.54 5364.44,3464.81 "/>
  <polygon class="fil5" points="6192.52,2858.89 6121.74,2884.03 5766.19,1977.49 5637.62,1649.71 5665.03,1636.65 5837.52,1950.42 6138.63,2498.14 "/>
  <polygon class="fil6" points="5837.52,1950.42 5766.19,1977.49 5637.62,1649.71 5665.03,1636.65 "/>
  <polygon class="fil5" points="7474.8,2907.96 7001.56,2940.68 6494.01,2975.77 6144,2873.08 6150.97,2798.31 6979.9,2847.98 7474.41,2877.6 "/>
  <polygon class="fil6" points="7474.8,2907.96 6984.62,2941.84 6979.9,2847.98 7474.41,2877.6 "/>
  <path class="fil7" d="M6147.82 2788.78c-35.88,-2.15 -66.73,25.2 -68.88,61.09 -2.15,35.89 25.23,66.73 61.11,68.88 35.89,2.15 66.74,-25.2 68.88,-61.09 2.15,-35.89 -25.18,-66.73 -61.11,-68.88z"/>
  <path class="fil8" d="M2810.56 6410.54l2467.26 0 1028.57 -0.64 1860.04 0c0,0 1.08,-1.89 3.18,-5.63 1.46,-2.67 3.48,-6.23 6.1,-10.79l1.03 -1.33c0,0 0,0 0,-0.68 0,-0.01 0.99,-0.74 0.99,-1.38 4.12,-5.46 7.17,-11.65 11.3,-19.08 2.06,-3.43 4.08,-7.56 7.22,-11.64 0.01,-0.64 0,-0.64 0,-1.38 0.99,-0.69 0.99,-0.69 0.99,-0.69 14.09,-24.36 31.58,-56.08 51.74,-94.4 1.85,-3.48 3.65,-6.97 5.54,-10.54 10.06,-28.96 21.1,-61.36 32.87,-97.07 27.97,-86.72 60.07,-192.52 91.44,-311.94 12.29,-47.14 24.58,-96.26 36.22,-147.48 6.84,-29.56 13.72,-60.33 20.29,-91.4 1.89,-9.16 3.78,-18.27 5.63,-27.38 12.08,-58.18 23.42,-118.17 33.65,-179.45 20.11,-119.94 36.01,-244.95 44.95,-371.67 -798.93,41.17 -2339.02,149.59 -3497.41,408.28 -1634.57,365.09 -2038.52,424.01 -2730.96,489.54 -387.51,36.61 54.65,279.74 519.35,486.74z"/>
  <path class="fil8" d="M3849.55 6015.2c0,0 2647.34,-806.33 3313.92,-864.73 666.63,-58.39 28.01,78.09 28.01,78.09 0.01,0 -1811.74,471.31 -2232.86,672.34 -890.56,425.08 -1109.07,114.31 -1109.07,114.31z"/>
  <path class="fil8" d="M4649.17 6387.46c0,0 2206.36,-1013.37 2803.41,-1178.03 597.02,-164.67 38.46,65.49 38.46,65.49 0,0 -1742.09,908.42 -2107,1137.77 -52.81,33.21 -734.87,-25.23 -734.87,-25.23z"/>
  <path class="fil9" d="M4225.17 5289.01l12.38 -2052.27 -477.08 460.75 -194.2 187.06 -16.29 -14.35 169.45 -211.82 276.99 -346.69 215.03 -129.69c-0.64,-0.65 -0.64,-0.65 -0.64,-1.31 0,-10.42 3.91,-19.55 9.11,-27.37l-273.68 -592.41 -107.56 -232.01 18.9 -11.08 138.84 220.27 242.41 384.51 46.28 217.67 940.4 0 1.33 22.16 -354.53 45.62 -354.55 46.27 -218.3 -50.18c-5.25,9.78 -14.36,16.94 -24.76,20.86l15.6 2018.35c-22.78,11.09 -44.95,26.09 -65.15,45.64z"/>
  <polygon class="fil4" points="9238.16,5597.12 9111.13,5597.12 9138.46,1635.42 9202.88,1635.42 "/>
  <polygon class="fil10" points="9149.26,1509.18 9694.4,422.41 9906.29,0 9941.96,14.78 9785.46,462.82 9529.08,1196.71 9233.26,1554.79 "/>
  <polygon class="fil6" points="9694.4,422.41 9906.29,0 9941.96,14.78 9785.46,462.82 "/>
  <polygon class="fil10" points="9112.08,1582.6 9182.77,1518.17 10047.33,2407.14 10359.91,2728.58 10334.2,2757.4 9976.94,2474.1 9353.24,1979.57 "/>
  <polygon class="fil6" points="9976.94,2474.1 10047.33,2407.14 10359.91,2728.58 10334.2,2757.4 "/>
  <polygon class="fil10" points="7582.4,2157.42 8121.88,1885.6 8700.45,1594.08 9162.02,1542.02 9190.76,1633.22 8192.99,1983.75 7597.83,2192.87 "/>
  <polygon class="fil6" points="7582.4,2157.42 8141.17,1875.87 8192.99,1983.75 7597.83,2192.87 "/>
  <path class="fil7" d="M9199.1 1642.87c43.23,-15.18 65.91,-62.49 50.75,-105.69 -15.17,-43.2 -62.48,-65.91 -105.71,-50.74 -43.18,15.17 -65.88,62.49 -50.71,105.69 15.18,43.2 62.48,65.91 105.67,50.74z"/>
  <path class="fil1" d="M7301.54 5814.51c0,0 -532.82,-158.35 -844.75,35.71 -311.97,194.1 -127.41,417.47 -496.49,398.05 -369.04,-19.42 -553.56,-38.07 -572.99,180.05l1631.61 0 282.63 -613.82z"/>
  <polygon class="fil11" points="9554.91,3913.56 9554.91,6424.5 7764.09,6424.5 7764.09,3913.56 "/>
  <path class="fil12" d="M10946.31 3980.38l0 2443.91 -1391.44 0 0 -2511.07 1330.8 0c20.89,22.17 41.07,44.35 60.64,67.16z"/>
  <path class="fil13" d="M9901.56 3093.37l-141.38 291.33 -62.57 128.35 -1.97 5.25 -2.62 4.55 -1.94 3.91 -3.26 6.54 -1.3 3.23 -61.92 127.1 -3.26 6.54 -7.82 16.93 -110.13 226.12 -25.4 52.8 -35.84 72.97 -18.9 39.11 -1782.44 0 123.16 -159.65 3.91 -5.24 801.6 -1037.51 0.64 -0.66 70.44 0 1087.02 -3.91c38.45,73.64 99.08,147.94 173.99,222.23z"/>
  <polygon class="fil11" points="9554.91,4066.28 9554.91,4275.08 7764.09,4350.76 7764.09,4078.4 7711.06,4078.4 8640.46,2874.79 "/>
  <path class="fil14" d="M8656.45 3474.38l-37.42 0c-127.2,0 -230.29,103.14 -230.29,230.29l0 585.19 490.53 0 0 -592.67c0,-123.03 -99.74,-222.81 -222.81,-222.81z"/>
  <polygon class="fil6" points="11109.55,4145.22 9521.95,4145.22 9441.8,4039 9347.31,3913.22 8603.72,2921.97 8569.17,2875.71 8565.26,2870.49 10152.83,2870.49 10156.74,2875.71 10191.29,2921.97 10934.92,3913.22 11029.37,4039 "/>
  <polygon class="fil13" points="8446.15,4415.82 8028.41,5275.86 6759.27,5275.86 7420.96,4418.95 "/>
  <polygon class="fil11" points="8484.17,4415.82 8066.44,5275.86 6797.31,5275.86 7458.94,4418.95 "/>
  <polygon class="fil11" points="8063.65,5275.86 8063.65,6422.14 6797.31,6424.6 6797.31,5275.86 "/>
  <polygon class="fil12" points="9135.97,5275.86 9135.97,6422.14 8063.65,6422.14 8063.65,5275.86 "/>
  <polygon class="fil6" points="9253.84,5326.7 8101.85,5326.7 7420.92,4418.91 7764.09,4419 8553.1,4419.17 "/>
  <path class="fil14" d="M7361.06 4896.42c0,-33.09 26.82,-59.86 59.9,-59.86 33.05,0 59.86,26.78 59.86,59.86 0.01,33.05 -26.81,59.86 -59.86,59.86 -33.09,0 -59.9,-26.81 -59.9,-59.86z"/>
  <polygon class="fil15" points="9253.84,5326.7 9035.21,5326.7 7764.09,4419 8553.1,4419.17 "/>
  <polygon class="fil7" points="9826.58,3948.75 10698.13,3948.75 10238.34,3384.92 9366.77,3384.92 "/>
  <polygon class="fil16" points="9485.51,3533.43 10357.08,3533.43 10351.66,3526.81 9480.09,3526.81 "/>
  <polygon class="fil16" points="10033.49,3384.87 10493.25,3948.75 10499.91,3948.75 10040.1,3384.87 "/>
  <polygon class="fil16" points="9802.55,3384.87 10262.36,3948.75 10268.97,3948.75 9809.17,3384.87 "/>
  <polygon class="fil16" points="9580.35,3384.87 10040.16,3948.75 10046.77,3948.75 9587.01,3384.87 "/>
  <polygon class="fil16" points="9599.38,3670.17 10470.94,3670.17 10465.52,3663.5 9593.97,3663.5 "/>
  <polygon class="fil16" points="9719.63,3817.65 10591.22,3817.65 10585.81,3811.03 9714.25,3811.03 "/>
  <polygon class="fil16" points="10178.56,3557.71 10183.59,3530.59 10134.26,3503.4 10129.28,3530.59 "/>
  <polygon class="fil16" points="9950.13,3557.71 9955.16,3530.59 9905.82,3503.4 9900.84,3530.59 "/>
  <polygon class="fil16" points="9724.61,3557.71 9729.64,3530.59 9680.31,3503.4 9675.31,3530.59 "/>
  <polygon class="fil16" points="10289.69,3694.01 10294.67,3666.86 10245.38,3639.7 10240.35,3666.86 "/>
  <polygon class="fil16" points="10061.25,3694.01 10066.24,3666.86 10016.94,3639.7 10011.92,3666.86 "/>
  <polygon class="fil16" points="9835.73,3694.01 9840.71,3666.86 9791.42,3639.7 9786.39,3666.86 "/>
  <polygon class="fil16" points="10409.93,3841.5 10414.95,3814.34 10365.66,3787.18 10360.63,3814.34 "/>
  <polygon class="fil16" points="10181.49,3841.5 10186.52,3814.34 10137.23,3787.18 10132.2,3814.34 "/>
  <polygon class="fil16" points="9955.97,3841.5 9961,3814.34 9911.7,3787.18 9906.67,3814.34 "/>
  <polygon class="fil7" points="8181.44,5151.88 8971.18,5151.88 8554.56,4640.95 7764.82,4640.95 "/>
  <polygon class="fil16" points="7872.38,4775.54 8662.12,4775.54 8657.22,4769.52 7867.48,4769.52 "/>
  <polygon class="fil16" points="8368.92,4640.95 8785.54,5151.88 8791.56,5151.88 8374.94,4640.95 "/>
  <polygon class="fil16" points="8159.69,4640.95 8576.3,5151.88 8582.28,5151.88 8165.71,4640.95 "/>
  <polygon class="fil16" points="7958.32,4640.95 8374.94,5151.88 8380.95,5151.88 7964.34,4640.95 "/>
  <polygon class="fil16" points="7975.55,4899.43 8765.29,4899.43 8760.39,4893.41 7970.66,4893.41 "/>
  <polygon class="fil16" points="8084.53,5033.07 8874.28,5033.07 8869.38,5027.05 8079.63,5027.05 "/>
  <polygon class="fil16" points="8500.37,4797.54 8504.93,4772.96 8460.23,4748.34 8455.68,4772.96 "/>
  <polygon class="fil16" points="8293.38,4797.54 8297.93,4772.96 8253.24,4748.34 8248.73,4772.96 "/>
  <polygon class="fil16" points="8089.05,4797.54 8093.6,4772.96 8048.91,4748.34 8044.36,4772.96 "/>
  <polygon class="fil16" points="8601.06,4921.04 8605.61,4896.42 8560.92,4871.79 8556.36,4896.42 "/>
  <polygon class="fil16" points="8394.06,4921.04 8398.62,4896.42 8353.93,4871.79 8349.41,4896.42 "/>
  <polygon class="fil16" points="8189.73,4921.04 8194.29,4896.42 8149.59,4871.79 8145.03,4896.42 "/>
  <polygon class="fil16" points="8710.03,5054.69 8714.59,5030.07 8669.9,5005.44 8665.35,5030.07 "/>
  <polygon class="fil16" points="8503.04,5054.69 8507.6,5030.07 8462.9,5005.44 8458.35,5030.07 "/>
  <polygon class="fil16" points="8298.7,5054.69 8303.22,5030.07 8258.58,5005.44 8254.02,5030.07 "/>
  <path class="fil1" d="M3591.44 6410.54c-0.26,0.73 -0.52,1.42 -0.78,2.15l-2988.91 0 -0.05 -0.13c0,-0.64 -0.69,-1.33 -0.69,-1.33 -1.59,-3.7 -345.89,-479.83 -448.24,-1133.04 74.81,-28.75 338.96,-118.05 710.58,-108.38 14.96,0.39 30.09,0.95 45.39,1.67 137.12,6.41 287.82,26.56 448.24,67.94 5.64,1.46 11.3,2.92 16.98,4.43 1.58,0.43 3.17,0.85 4.76,1.29 11.35,3.05 22.69,6.19 34.12,9.46 12.81,3.65 25.61,7.43 38.54,11.34 4.61,1.42 9.24,2.83 13.89,4.25 17.1,5.33 34.29,10.92 51.6,16.72 201.89,67.94 327.15,141.16 414.34,211.93 1.81,1.46 3.61,2.92 5.42,4.39 41.85,34.59 74.8,68.58 103.3,101.02 7.78,8.85 15.26,17.58 22.47,26.17 8.94,10.7 17.54,21.19 25.96,31.46 28.23,34.46 54.31,66.26 84.92,94.03 84.39,76.79 203.04,123.2 495.59,111.55 52.47,-2.11 102.61,-2.57 150.53,-1.54 629.08,13.11 868.28,282.71 772.04,544.63z"/>
  <path class="fil1" d="M11464.42 5380.25l-0.43 -0.09c-114.69,-22.9 -294.79,-50.49 -517.73,-57.11 -138.11,-4.13 -292.72,-0.21 -458.38,17.83 -5.84,0.64 -11.73,1.29 -17.62,1.93 -17.26,2.02 -34.68,4.13 -52.21,6.44 -38.24,4.98 -77.05,10.79 -116.28,17.4l-0.13 0c-11.68,1.98 -23.3,4 -35.06,6.15 -12.59,2.23 -25.23,4.6 -37.9,7.04 -27.16,5.25 -54.58,10.92 -82.17,17.03 -12.12,2.66 -24.28,5.45 -36.48,8.33 -12.21,2.79 -24.42,5.76 -36.7,8.77 -14.87,3.7 -29.79,7.47 -44.74,11.39l-0.03 0c-4.64,1.24 -9.34,2.49 -13.97,3.73l-0.05 0c-13.71,3.7 -27.46,7.48 -41.26,11.39 -55.73,15.78 -112.07,33.43 -168.75,53.15 -93.08,32.15 -175.75,63.82 -249.67,94.67 -93.8,39.06 -173.52,76.83 -242.4,112.55 -68.02,35.14 -125.78,68.53 -176.49,99.69 -274.68,168.8 -342.32,272.96 -716.99,243.78 -33.39,-2.53 -65.36,-3.57 -96,-3.13 -100.38,1.29 -186.24,17.49 -259.33,42.46 -146.54,50.02 -241.72,135.4 -299.6,206.65 -47.7,58.7 -70.13,107.77 -75.16,119.55 -0.77,1.77 -1.12,2.71 -1.12,2.71l76.28 0 299.6 0 1072.32 0 418.9 0 106.96 0 75.06 0 922.4 0 75.08 0 211.89 0 77.62 0c61.91,-66.48 310.21,-340.86 405.39,-770.32 18.01,-81.17 30.29,-167.51 34.98,-258.87l0.17 -3.13z"/>
  <path class="fil2" d="M1673.88 3598.15c0,0 72.02,-134.72 244.25,-119.77 0,0 250.04,-224.52 516.68,-29.95 0,0 283.44,-48.17 493.34,41.77 139.95,59.98 186.18,122.89 186.18,122.89l-1440.45 -14.95z"/>
  <path class="fil2" d="M4361.48 2437.12c0,0 59.64,-128.1 202.26,-113.87 0,0 207.08,-213.53 427.88,-28.47 0,0 234.71,-45.85 408.54,39.7 115.9,57.03 154.18,116.88 154.18,116.88l-1192.86 -14.24z"/>
  <polygon class="fil17" points="1850.94,6391.8 2021.16,6389.7 2418.68,4733.21 2248.46,4735.36 "/>
  <path class="fil17" d="M1569.74 6428.68l763.31 0c0,-44.65 -36.2,-80.88 -80.86,-80.88l-601.59 0c-44.66,0 -80.86,36.23 -80.86,80.88z"/>
  <polygon class="fil17" points="3333.02,5661.71 3259.7,5294.17 3259.54,5293.39 3015.56,4070.15 644.1,4070.49 961.55,5662.06 1412,5662.01 1416.23,5662.01 1920.35,5661.92 1921.89,5661.92 2423.8,5661.88 2427.24,5661.84 2928.06,5661.8 2932.59,5661.8 "/>
  <polygon class="fil18" points="3373.63,5630.25 1002.16,5630.6 684.71,4070.49 3056.18,4070.15 "/>
  <polygon class="fil19" points="1457.15,5630.55 1452.62,5630.55 1136.01,4074.62 1140.55,4074.62 "/>
  <polygon class="fil19" points="1962.51,5630.47 1957.97,5630.47 1641.37,4074.58 1645.9,4074.58 "/>
  <polygon class="fil19" points="2467.85,5630.39 2463.32,5630.39 2146.72,4074.49 2151.26,4074.49 "/>
  <polygon class="fil19" points="2973.21,5630.34 2968.67,5630.34 2652.07,4074.41 2656.61,4074.41 "/>
  <polygon class="fil19" points="3131.51,4440.4 760.06,4440.74 759.18,4436.49 3130.65,4436.14 "/>
  <polygon class="fil19" points="3215.92,4855.21 844.45,4855.51 843.58,4851.25 3215.05,4850.91 "/>
  <polygon class="fil19" points="3300.32,5269.98 928.85,5270.28 927.99,5266.02 3299.45,5265.67 "/>
  <polygon class="fil19" points="1221.66,4484.4 1163.52,4438.55 1203,4392.7 1261.16,4438.55 "/>
  <polygon class="fil19" points="1306.51,4901.32 1248.35,4855.46 1287.84,4809.62 1345.99,4855.46 "/>
  <polygon class="fil19" points="1729.29,4484.36 1671.14,4438.51 1710.63,4392.62 1768.77,4438.46 "/>
  <polygon class="fil19" points="1814.12,4901.23 1755.97,4855.38 1795.46,4809.53 1853.61,4855.38 "/>
  <polygon class="fil19" points="2234.64,4484.27 2176.49,4438.42 2215.98,4392.57 2274.13,4438.42 "/>
  <polygon class="fil19" points="2735.45,4484.19 2677.3,4438.33 2716.79,4392.49 2774.95,4438.33 "/>
  <polygon class="fil19" points="1390.47,5313.98 1332.32,5268.13 1371.8,5222.24 1429.95,5268.08 "/>
  <polygon class="fil19" points="1898.08,5313.89 1839.94,5268.05 1879.42,5222.19 1937.58,5268.05 "/>
  <polygon class="fil19" points="2403.44,5313.81 2345.28,5267.95 2384.78,5222.11 2442.92,5267.95 "/>
  <polygon class="fil19" points="2904.25,5313.76 2846.11,5267.91 2885.59,5222.02 2943.74,5267.87 "/>
  <polygon class="fil19" points="2820.29,4901.1 2762.14,4855.25 2801.62,4809.4 2859.78,4855.25 "/>
  <polygon class="fil19" points="2319.47,4901.19 2261.33,4855.34 2300.81,4809.44 2358.96,4855.3 "/>
  <polygon class="fil17" points="4319.5,6403.36 4436.38,6401.9 4709.3,5264.61 4592.41,5266.07 "/>
  <path class="fil17" d="M4126.42 6428.68l524.08 0c0,-30.64 -24.89,-55.53 -55.53,-55.53l-413.04 0c-30.64,0 -55.53,24.89 -55.52,55.53z"/>
  <polygon class="fil17" points="5337.08,5902.09 5286.71,5649.77 5286.62,5649.2 5119.12,4809.4 3490.9,4809.62 3708.86,5902.35 4018.13,5902.31 4021.05,5902.31 4367.15,5902.27 4368.23,5902.27 4712.82,5902.22 4715.18,5902.18 5059.01,5902.14 5062.14,5902.14 "/>
  <polygon class="fil18" points="5364.92,5880.52 3736.75,5880.74 3518.8,4809.62 5146.96,4809.4 "/>
  <polygon class="fil19" points="4049.11,5880.69 4046.02,5880.69 3828.66,4812.45 3831.76,4812.45 "/>
  <polygon class="fil19" points="4396.11,5880.65 4392.97,5880.65 4175.63,4812.4 4178.71,4812.4 "/>
  <polygon class="fil19" points="4743.07,5880.61 4739.94,5880.61 4522.58,4812.37 4525.68,4812.37 "/>
  <polygon class="fil19" points="5090.02,5880.56 5086.89,5880.56 4869.54,4812.32 4872.64,4812.32 "/>
  <polygon class="fil19" points="5198.7,5063.58 3570.52,5063.83 3569.93,5060.87 5198.1,5060.66 "/>
  <polygon class="fil19" points="5256.67,5348.35 3628.47,5348.61 3627.88,5345.65 5256.07,5345.43 "/>
  <polygon class="fil19" points="5314.6,5633.13 3686.43,5633.35 3685.82,5630.42 5313.99,5630.21 "/>
  <polygon class="fil19" points="3887.45,5093.79 3847.53,5062.33 3874.65,5030.84 3914.56,5062.29 "/>
  <polygon class="fil19" points="3945.68,5380.02 3905.76,5348.57 3932.88,5317.07 3972.79,5348.53 "/>
  <polygon class="fil19" points="4235.96,5093.75 4196.03,5062.25 4223.15,5030.79 4263.07,5062.25 "/>
  <polygon class="fil19" points="4294.22,5379.99 4254.31,5348.48 4281.42,5317.03 4321.34,5348.48 "/>
  <polygon class="fil19" points="4582.96,5093.7 4542.99,5062.21 4570.11,5030.71 4610.03,5062.21 "/>
  <polygon class="fil19" points="4926.77,5093.66 4886.86,5062.16 4913.97,5030.66 4953.89,5062.16 "/>
  <polygon class="fil19" points="4003.35,5663.34 3963.42,5631.84 3990.54,5600.39 4030.46,5631.84 "/>
  <polygon class="fil19" points="4351.85,5663.3 4311.93,5631.8 4339.05,5600.3 4378.96,5631.8 "/>
  <polygon class="fil19" points="4698.85,5663.25 4658.89,5631.76 4686,5600.26 4725.93,5631.76 "/>
  <polygon class="fil19" points="5042.67,5663.21 5002.74,5631.71 5029.86,5600.21 5069.79,5631.71 "/>
  <polygon class="fil19" points="4985.05,5379.9 4945.12,5348.4 4972.2,5316.9 5012.12,5348.4 "/>
  <polygon class="fil19" points="4641.19,5379.94 4601.26,5348.44 4628.38,5316.99 4668.3,5348.44 "/>
  <path class="fil20" d="M6799.93 6021.17l38.72 -7.57c0,0 -92.56,-366.2 -79.89,-396.42 10.27,-25.09 117.01,-43.23 169.31,-87.1 11.22,-9.37 19.68,-19.64 24.49,-31.41 27.85,-68.06 -17.53,-118.55 -17.53,-118.55 0.01,0 -94.93,21.79 -181.12,58.65 -61.36,26.3 -118.22,60.51 -133.95,100.08 -37.77,95.87 179.97,482.32 179.97,482.32z"/>
  <path class="fil21" d="M6694.52 6077.63c0.6,-3.82 3.13,-7.22 6.87,-9.28 9.25,-5.07 28.1,-12.37 42.2,-31.24 7.95,-10.57 40.78,-41.94 40.78,-41.94l0.21 -0.08c0.82,-0.22 5.11,-0.13 25.95,8.37 10.75,4.39 21.92,-15.81 21.92,-15.81 0.01,0 3.44,1.37 6.62,4.77 2.54,2.62 4.9,6.57 5.25,12.12 0.55,7.73 8.59,20.37 14.56,28.75 3.61,5.11 6.49,8.64 6.49,8.64 0,0 2.23,4.38 -16.07,11.3l-21.87 5.67c-7.61,0.85 -13.5,0.39 -21.27,1.46 -11.73,1.64 -15.94,7.13 -16.76,8.37l-0.13 0.22 -93.04 24.07c-3.09,-2.37 -2.62,-9.8 -1.71,-15.39z"/>
  <path class="fil22" d="M6512.14 6092.24c9.54,0 17.32,-7.73 17.32,-17.27 0,-214.47 -174.51,-388.98 -388.98,-388.98 -49.5,0 -97.76,9.2 -143.31,27.29 -8.9,3.47 -13.19,13.58 -9.67,22.42 3.52,8.85 13.5,13.2 22.43,9.72 41.47,-16.5 85.43,-24.88 130.55,-24.88 195.43,-0.01 354.39,158.99 354.39,354.43 0,9.54 7.73,17.27 17.27,17.27z"/>
  <path class="fil21" d="M6199.18 6074.93c0,-31.81 -25.8,-57.58 -57.63,-57.58 -31.8,0 -57.58,25.79 -57.58,57.58 0,31.84 25.79,57.62 57.58,57.62 31.84,0 57.62,-25.79 57.63,-57.62z"/>
  <polygon class="fil21" points="6147.87,6072.35 6245.46,5800.34 6238.12,5797.67 6140.48,6069.73 "/>
  <polygon class="fil21" points="6417.26,6197.61 6420.36,6190.44 6144.13,6071.79 5962.53,5812.37 5956.13,5816.88 6139.02,6078.11 6140.04,6078.53 "/>
  <path class="fil21" d="M6251.09 6374.92l7.44 -2.49c-1.98,-5.85 -108.77,-286.92 -113.32,-298.87l-2.75 -7.31 -172.1 272.15 6.62 4.16 163.73 -258.9c39.1,102.92 108.93,286.79 110.39,291.26z"/>
  <polygon class="fil21" points="6142.24,6059.28 6448.75,6006.56 6447.43,5998.87 6140.91,6051.55 "/>
  <polygon class="fil21" points="6118.35,6054.69 6125.74,6052.23 6035.93,5782.81 6028.53,5785.25 "/>
  <polygon class="fil21" points="6142.2,6079.01 6143.32,6078.41 6424.48,5935.91 6420.95,5928.96 6140.95,6070.89 5839.58,6020.31 5838.3,6028.05 "/>
  <path class="fil21" d="M6028.15 6365.12c1.64,-4.9 73.78,-182.42 114.18,-281.68l156.03 245.46 6.62 -4.17 -164.16 -258.26 -2.88 7.01c-4.68,11.56 -115.25,283.27 -117.23,289.2l7.44 2.45z"/>
  <polygon class="fil21" points="6443.61,6123.7 6444.76,6115.97 6142.15,6071.06 6140.99,6078.79 "/>
  <polygon class="fil21" points="6160.12,6034.54 6328.05,5841.25 6322.17,5836.13 6154.23,6029.42 "/>
  <polygon class="fil21" points="6151.35,6379.85 6159.13,6379.21 6135.71,6096.11 6127.93,6096.76 "/>
  <polygon class="fil21" points="5890,6248.02 6157.45,6062.55 6153.03,6056.1 5885.53,6241.57 "/>
  <polygon class="fil21" points="6363.33,6284.63 6368.88,6279.13 6145.46,6053.82 6145.46,5760.59 6137.68,5760.59 6137.68,6057 "/>
  <path class="fil23" d="M6410.35 6186.14c-0.95,2.41 -1.99,4.82 -3.1,7.18 -12.34,27.62 -28.88,52.98 -48.81,75.28 -1.72,1.98 -3.48,3.92 -5.29,5.8 -15.65,16.55 -33.18,31.28 -52.3,43.83 -2.15,1.46 -4.34,2.84 -6.57,4.21 -14.48,8.98 -29.82,16.72 -45.85,23.08 -2.41,0.94 -4.85,1.88 -7.31,2.79 -26.16,9.54 -54.1,15.47 -83.15,17.06 -2.61,0.17 -5.19,0.26 -7.81,0.35 -2.88,0.08 -5.72,0.13 -8.6,0.13 -36.35,0 -72.28,-6.79 -105.8,-19.9 -2.45,-0.9 -4.85,-1.88 -7.26,-2.88 -11.68,-4.98 -23.07,-10.65 -34.08,-17.14 -1.67,-0.99 -3.35,-2.02 -5.02,-3.05 -2.23,-1.33 -4.43,-2.7 -6.58,-4.16 -29.94,-19.51 -56.08,-44.44 -77,-73.31 -1.33,-1.85 -2.67,-3.74 -3.95,-5.63 -1.51,-2.15 -2.97,-4.34 -4.34,-6.54 -2.67,-3.99 -5.16,-8.03 -7.57,-12.16 -14.22,-24.44 -24.76,-50.83 -31.28,-78.25 -5.32,-22.13 -8.03,-44.94 -8.03,-67.89 0,-15.09 1.16,-29.87 3.35,-44.31 0.43,-2.57 0.86,-5.16 1.3,-7.69 13.66,-75.42 56.5,-140.78 116.32,-183.97 2.11,-1.54 4.26,-3.05 6.41,-4.51 17.66,-12.07 36.7,-22.21 56.8,-30.21 2.45,-0.95 4.9,-1.85 7.35,-2.75 29.86,-10.91 62.01,-17.02 95.48,-17.45 1.3,-0.04 2.62,-0.04 3.92,-0.04 1.29,0 2.62,0 3.91,0.04 31.29,0.39 61.41,5.76 89.56,15.34l0.05 0c0.73,0.26 1.42,0.51 2.14,0.77 2.49,0.86 4.9,1.77 7.35,2.67 12.77,4.85 25.1,10.57 36.92,17.06 12.25,6.75 23.93,14.35 35.02,22.73 2.11,1.54 4.13,3.13 6.15,4.81 10.88,8.64 21.14,18.09 30.68,28.19 9.33,9.88 17.93,20.45 25.79,31.58 7.39,10.4 14.14,21.32 20.07,32.71 1.25,2.32 2.45,4.63 3.57,6.96 8.77,17.74 15.73,36.52 20.76,56.08 0.6,2.54 1.24,5.07 1.8,7.65 4.69,20.71 7.18,42.24 7.18,64.33 0,13.15 -0.86,26.13 -2.58,38.84 -0.34,2.58 -0.73,5.2 -1.16,7.74 -3.61,22.51 -9.84,44.17 -18.39,64.63zm5.41 -308.24c-6.23,-8.63 -12.9,-17.02 -19.9,-25 -26.64,-30.47 -58.66,-56.12 -94.54,-75.47 -15.64,-8.46 -32.01,-15.68 -48.99,-21.57 -34.71,-12.12 -71.97,-18.7 -110.78,-18.7 -12.03,0 -23.94,0.65 -35.62,1.89l-0.05 0c-70.09,7.39 -133.86,36.31 -184.52,79.93l-0.05 0.04c-71.89,62.02 -117.52,153.72 -117.52,255.9 0,30.93 4.25,61.62 12.5,91.14 7.39,26.56 18.09,52.22 31.88,76.27 0.4,0.77 0.86,1.51 1.29,2.28 29.22,50.19 71.13,92.31 121.19,121.7 39.32,23.12 83.01,37.95 128.22,43.66l0.09 0 0.08 0c14.01,1.81 28.27,2.71 42.5,2.71 14.65,0 29.13,-0.95 43.32,-2.75l0.08 0c165.87,-21.4 294.36,-163.42 294.36,-335.01 0,-73.49 -23.55,-141.55 -63.55,-197.03z"/>
  <polygon class="fil24" points="6794.13,6127.14 6992.66,5506.28 6959.18,5495.58 6760.65,6116.44 "/>
  <polygon class="fil24" points="6810.8,6128.9 7279.32,6088.16 6410.43,5500.69 6460.14,5602.45 7177.48,6061.74 6807.8,6093.88 "/>
  <polygon class="fil24" points="6747.67,6101.4 6777.19,6082.32 6416.7,5504.82 6374.72,5548.27 "/>
  <path class="fil21" d="M6169.57 6059.46l200.77 -429.68 -26.9 -10.75c-17.49,-7.01 -37.35,1.55 -44.26,19.04l-162.18 408.1 32.58 13.28z"/>
  <path class="fil21" d="M6370.34 5629.78c29.05,-75.37 77.52,-193.81 76.74,-192.65l-29.22 -19.51c-1.42,2.15 -2.37,3.57 -78.56,201.28l31.04 10.88z"/>
  <path class="fil21" d="M6538.87 5478.31c11.47,-15.99 7.86,-38.29 -8.13,-49.76 -15.98,-11.52 -38.24,-7.87 -49.76,8.12 -11.46,15.99 -7.86,38.24 8.13,49.72 15.99,11.52 38.24,7.92 49.76,-8.07z"/>
  <path class="fil21" d="M6403.89 5384.97c11.52,-15.99 7.91,-38.25 -8.08,-49.76 -15.98,-11.47 -38.29,-7.87 -49.76,8.12 -11.51,15.99 -7.86,38.25 8.13,49.76 15.94,11.47 38.24,7.87 49.72,-8.12z"/>
  <polygon class="fil21" points="6369.13,5397.6 6505.31,5484.24 6524.17,5447.06 6388.03,5360.43 "/>
  <path class="fil21" d="M6593.23 6211.62l76.15 0c8.94,0 16.24,-7.35 16.24,-16.29 0,-8.94 -7.31,-16.23 -16.24,-16.23l-76.15 -0.01c-8.94,0 -16.29,7.31 -16.29,16.24 0,8.94 7.35,16.29 16.29,16.29z"/>
  <polygon class="fil21" points="6630.57,6191.81 6784.8,6121.51 6779.13,6109.09 6624.9,6179.34 "/>
  <path class="fil21" d="M7286.02 6074.93c0,-31.81 -25.82,-57.58 -57.62,-57.58 -31.8,0 -57.58,25.79 -57.58,57.58 0,31.84 25.79,57.62 57.58,57.62 31.8,0 57.62,-25.79 57.62,-57.62z"/>
  <polygon class="fil21" points="7234.67,6072.35 7332.31,5800.34 7324.96,5797.67 7227.33,6069.73 "/>
  <polygon class="fil21" points="7504.11,6197.61 7507.2,6190.44 7230.98,6071.79 7049.38,5812.37 7042.98,5816.88 7225.86,6078.11 7226.85,6078.53 "/>
  <path class="fil21" d="M7337.94 6374.92l7.44 -2.49c-1.98,-5.85 -108.76,-286.92 -113.32,-298.87l-2.75 -7.31 -172.1 272.15 6.62 4.16 163.73 -258.9c39.1,102.92 108.93,286.79 110.39,291.26z"/>
  <polygon class="fil21" points="7229.09,6059.28 7535.6,6006.56 7534.28,5998.87 7227.76,6051.55 "/>
  <polygon class="fil21" points="7205.2,6054.69 7212.59,6052.23 7122.77,5782.81 7115.38,5785.25 "/>
  <polygon class="fil21" points="7229.05,6079.01 7230.17,6078.41 7511.33,5935.91 7507.8,5928.96 7227.8,6070.89 6926.44,6020.31 6925.15,6028.05 "/>
  <path class="fil21" d="M7114.96 6365.12c1.67,-4.9 73.82,-182.42 114.21,-281.68l156.03 245.46 6.62 -4.17 -164.2 -258.26 -2.83 7.01c-4.69,11.56 -115.26,283.27 -117.24,289.2l7.4 2.45z"/>
  <polygon class="fil21" points="7530.45,6123.7 7531.61,6115.97 7229,6071.06 7227.84,6078.79 "/>
  <polygon class="fil21" points="7246.96,6034.54 7414.9,5841.25 7408.97,5836.13 7241.08,6029.42 "/>
  <polygon class="fil21" points="7238.2,6379.85 7245.98,6379.21 7222.55,6096.11 7214.78,6096.76 "/>
  <polygon class="fil21" points="6976.84,6248.02 7244.3,6062.55 7239.87,6056.1 6972.37,6241.57 "/>
  <polygon class="fil21" points="7450.18,6284.63 7455.73,6279.13 7232.31,6053.82 7232.31,5760.59 7224.49,5760.59 7224.49,6057 "/>
  <path class="fil23" d="M7497.19 6186.14c-0.94,2.41 -1.98,4.82 -3.09,7.18 -12.34,27.62 -28.88,52.98 -48.81,75.28 -1.72,1.98 -3.48,3.92 -5.29,5.8 -15.64,16.55 -33.18,31.28 -52.3,43.83 -2.15,1.46 -4.34,2.84 -6.57,4.21 -14.48,8.98 -29.82,16.72 -45.85,23.08 -2.41,0.94 -4.85,1.88 -7.31,2.79 -26.21,9.54 -54.14,15.47 -83.19,17.06 -2.57,0.17 -5.2,0.26 -7.78,0.35 -2.88,0.08 -5.72,0.13 -8.6,0.13 -36.39,0 -72.28,-6.79 -105.8,-19.9 -2.45,-0.9 -4.85,-1.88 -7.26,-2.88 -11.68,-4.98 -23.07,-10.65 -34.08,-17.14 -1.67,-0.99 -3.35,-2.02 -5.03,-3.05 -2.22,-1.33 -4.42,-2.7 -6.57,-4.16l-0.21 -0.13c-31.8,-20.76 -59.26,-47.62 -80.74,-78.81 -1.51,-2.15 -2.97,-4.34 -4.34,-6.54 -2.67,-3.99 -5.16,-8.03 -7.57,-12.16 -18.56,-31.88 -30.81,-67.04 -36.14,-103.48 -1.77,-11.56 -2.76,-23.25 -3.05,-35.02 -0.08,-2.54 -0.13,-5.12 -0.13,-7.65 0,-15.09 1.16,-29.87 3.35,-44.31 0.43,-2.57 0.86,-5.16 1.3,-7.69 5.88,-32.45 17.14,-63.05 32.91,-90.81 6.75,-12.02 14.35,-23.5 22.73,-34.33 17.27,-22.44 37.73,-42.29 60.67,-58.84 2.11,-1.54 4.26,-3.05 6.41,-4.51 17.66,-12.07 36.7,-22.21 56.8,-30.21 2.45,-0.95 4.9,-1.85 7.35,-2.75 18.22,-6.66 37.17,-11.52 56.85,-14.4l0.05 0c12.63,-1.85 25.48,-2.88 38.58,-3.05 1.3,-0.04 2.63,-0.04 3.92,-0.04 1.29,0 2.62,0 3.91,0.04 32.1,0.39 62.95,6.06 91.75,16.12 2.5,0.86 4.9,1.77 7.35,2.67 25.96,9.84 50.15,23.33 71.94,39.8 2.11,1.54 4.13,3.13 6.15,4.81 31.5,25.1 57.67,56.56 76.53,92.48 1.25,2.32 2.45,4.63 3.57,6.96 8.77,17.74 15.73,36.52 20.76,56.08 0.61,2.54 1.24,5.07 1.76,7.65 4.73,20.71 7.23,42.24 7.23,64.33 0,13.15 -0.86,26.13 -2.58,38.84 -0.34,2.58 -0.73,5.2 -1.16,7.74 -3.6,22.51 -9.84,44.17 -18.4,64.63zm-268.78 -448.98c-51.69,0 -100.73,11.69 -144.56,32.58 -49.41,23.41 -92.26,58.57 -124.92,101.8 -8.5,11.21 -16.33,23.03 -23.38,35.27 -28.57,49.5 -44.9,106.96 -44.9,168.11 0,3.91 0.08,7.81 0.21,11.73 0.39,11.73 1.42,23.41 3.01,35.02 6.07,43.27 20.42,85.13 42.42,122.95 27.67,47.53 66.78,87.84 113.4,116.93 2.58,1.64 5.19,3.23 7.81,4.77 39.02,22.95 82.3,37.68 127.07,43.53 14.48,1.89 29.13,2.84 43.83,2.84 14.87,0 29.52,-0.95 43.87,-2.84 165.57,-21.57 293.89,-163.55 293.89,-334.92 0,-186.24 -151.52,-337.77 -337.76,-337.77z"/>
  <path class="fil6" d="M6953.16 5728.36c4.95,1.77 10.4,1.2 14.91,-1.5 158.01,-95.49 376.69,-59.64 439.95,-46.37l0.09 0.05c3.47,0.73 6.74,-1.94 6.74,-5.51l0 -12.33c0,-9.46 -6.88,-17.49 -16.24,-18.86 -34.2,-5.12 -114.13,-16.03 -158.82,-16.24 -1.2,0 -2.41,0 -3.61,0 -100.04,0 -186.42,17.92 -257.4,53.28 -14.48,7.22 -31.28,8.25 -46.58,2.88l-19.46 -6.83c-11.13,-3.92 -23.34,1.93 -27.25,13.06 -2.54,7.18 1.24,15.04 8.42,17.58l59.26 20.79z"/>
  <path class="fil6" d="M7100.04 5487.76c0,0 6.36,-28.79 -11.73,-30.77 -18.05,-1.93 -83.92,12.21 -101.5,10.27 -17.57,-1.98 -109.36,-17.1 -125.44,-1.46 -16.11,15.6 -9.28,29.27 22.91,32.19 32.23,2.96 75.2,8.29 87.41,18.56 12.21,10.27 100.51,40.52 128.35,-28.79z"/>
  <path class="fil22" d="M6865.24 6121.81c0,-48.51 -39.32,-87.88 -87.84,-87.88 -48.51,0 -87.88,39.36 -87.88,87.88 0.01,48.51 39.36,87.83 87.88,87.83 48.52,0 87.84,-39.32 87.84,-87.84z"/>
  <path class="fil20" d="M6471.23 5377.1c0,0 -28.75,-36.48 -44.48,-31.96 -27.16,7.86 -29.39,32.65 -28.75,37.73 0.69,5.07 0.34,25 12.42,29.26 12.03,4.26 24.57,-0.98 30.12,-5.63 5.59,-4.69 30.69,-29.4 30.69,-29.4z"/>
  <path class="fil20" d="M6422.42 5347.63c0,0 4,22.69 31.5,30.25 27.55,7.25 197.71,-64.38 238.24,-84.32 21.75,-10.91 53.2,-71.37 77.4,-124.27 5.76,-13.03 11.17,-25.4 16.03,-36.62 12.12,-28.1 19.93,-48.35 19.93,-48.35 0.01,-27.85 -30.68,-16.97 -58.48,-4.25 -8.51,3.91 -52.81,-14.83 -64.59,7.86 -5.46,10.57 -12.68,9.37 -18.14,21.18 -21.44,47.44 -41.07,100.98 -45.33,113.66 -7.56,22.69 -196.56,124.84 -196.56,124.84z"/>
  <path class="fil25" d="M6492.5 5398.34c0,0 -28.62,-35.89 -44.52,-31.94 -37.38,9.33 -32.36,36.31 -31.67,41.39 0.65,5.03 3.31,21.36 15.39,25.61 12.02,4.26 24.57,-0.99 30.12,-5.67 5.59,-4.64 30.69,-29.39 30.69,-29.39z"/>
  <path class="fil25" d="M6821.5 5038.52l-97.11 35.84c-12.38,-12.03 -24.85,-31.2 -34.81,-48.73 -12.37,-21.74 -20.97,-40.95 -20.97,-40.95l67.81 -47.53 21.32 -14.91c1.37,43.28 63.76,116.28 63.77,116.28z"/>
  <path class="fil20" d="M6762.89 4945.7c0,0 -19.26,59.91 -73.31,79.93 -12.37,-21.74 -20.97,-40.95 -20.97,-40.95l67.81 -47.53 26.48 8.55z"/>
  <path class="fil25" d="M6637.88 4983.22c0,0 120.06,18.83 130.63,-56.16 10.57,-74.94 33.18,-122.98 -43.01,-138.15 -76.23,-15.21 -95.18,11.3 -104.81,35.45 -9.63,24.15 -13.8,152.03 17.19,158.86z"/>
  <path class="fil22" d="M6795.46 4775.24c0,0 -5.46,1.12 -9.85,5.67l-0.08 -0.08c-0.3,-16.16 -16.16,-32.49 -16.16,-32.49 7.61,9.58 5.16,27.28 5.16,27.28 -22.6,-38.63 -132.69,-8.25 -143.01,-5.67 -10.31,2.58 -17.62,-12.89 -17.62,-12.89 -16.28,14.09 -22.48,48.64 -8.98,71.25 13.5,22.56 57.33,55.78 69.92,49.46 12.63,-6.32 12.63,6.75 11.99,25.1 -0.64,18.3 31.11,49.16 53.49,53.63 18.06,3.61 19.47,-8.72 24.41,-16.63 1.21,-1.94 2.67,-3.74 4.39,-5.29 24.58,-22.17 38.11,-66.52 32.62,-110.22 -2.19,-17.32 -9.37,-31.93 -13.4,-38.98 1.64,-2.75 4.81,-7.95 7.13,-10.14z"/>
  <path class="fil22" d="M6753.91 5438.77c1.24,5.46 14.52,50.19 48.98,61.71 22.39,7.56 76.83,26 125.18,29.6 11.22,-9.37 19.68,-19.64 24.49,-31.41 27.85,-68.06 -17.53,-118.55 -17.53,-118.55 0.01,0 -94.93,21.79 -181.12,58.65z"/>
  <path class="fil25" d="M7026.61 5280.98c0,0 97.29,112.06 7.94,238.02 -89.29,126 -234.75,227.63 -242.75,272.57 -15.51,86.94 -108.11,266.48 -152.2,355.3l-37.77 -14.49c0,0 70.86,-420.99 96.09,-471.36 25.18,-50.41 155.73,-286.32 155.73,-286.32l172.97 -93.72z"/>
  <path class="fil26" d="M6663.24 5103.46c9.36,3.01 32.01,11.47 38.07,21.78 6.36,10.28 72.88,-18.48 80.74,-45.38 -19.03,-20.84 -51.69,-38.67 -70.78,-32.65 -11.17,3.35 -29.31,27.2 -48.03,56.25z"/>
  <path class="fil27" d="M7046.2 5315.44c0,0 -126.29,89.98 -210.69,84.95 0,0 -55.43,94.49 -67.72,125.65 0,0 143.61,71.81 218.31,58.61 0,0 97.28,-94.49 91.65,-160.67 -5.66,-66.13 -31.54,-108.54 -31.54,-108.54z"/>
  <path class="fil4" d="M6699.76 5146.22l30.3 43.1 2.4 5.46 62.92 143.61 32.01 73.18c21.49,5.16 61.41,1.51 79.24,-4.85 97.37,-33.26 139.7,-91.31 139.7,-91.31 -56.55,-147.82 -134.89,-248.81 -150.88,-266.69 -27.85,-30.21 -100.73,-55 -100.73,-55 -19.94,20.54 -91.31,56.56 -91.31,56.56 -15.68,12.37 -3.65,95.96 -3.65,95.96z"/>
  <path class="fil26" d="M6732.46 5194.78l62.92 143.61c47.74,-96.43 17.53,-236.43 17.53,-236.43 0,0 -76.83,66.52 -79.55,71.63 -0.29,0.95 -0.9,8.77 -0.9,21.19z"/>
  <path class="fil25" d="M6443.69 5368.89c0,0 3.99,22.65 31.5,30.22 27.51,7.26 197.71,-64.33 238.24,-84.32 21.75,-10.87 53.2,-71.33 77.4,-124.22 5.76,-13.03 11.17,-25.45 16.02,-36.62 12.08,-28.1 19.94,-48.39 19.94,-48.39 0.01,-27.8 -65.61,-65.61 -93.42,-52.9 -8.47,3.92 -19.64,21.14 -31.45,43.83 -5.41,10.57 -10.88,22.09 -16.34,33.87 -21.44,47.48 -41.12,100.98 -45.33,113.7 -7.57,22.69 -196.56,124.83 -196.56,124.83z"/>
  <path class="fil4" d="M6685.57 5130.36c25.4,11.51 71.08,33.86 105.24,60.2 5.76,-13.03 11.17,-25.45 16.02,-36.62 12.08,-28.1 19.94,-48.39 19.94,-48.39 0.01,-27.8 -65.61,-65.61 -93.42,-52.9 -8.47,3.92 -19.64,21.14 -31.45,43.83 -5.41,10.57 -10.88,22.09 -16.34,33.87z"/>
  <path class="fil24" d="M6654.47 6181.28l-22.61 0c-7.57,-1.03 -13.19,-2.97 -20.92,-3.87 -11.81,-1.37 -17.24,2.92 -18.35,3.87l-0.17 0.21 -96.09 0c-2.4,-3.05 -0.08,-10.09 2.19,-15.3 1.51,-3.57 4.85,-6.23 8.98,-7.31 10.19,-2.57 30.25,-4.89 48.65,-19.64 10.36,-8.29 49.97,-30.42 49.97,-30.42l0.22 -0.05c0.85,0.05 5.02,1.16 23.03,14.61 9.32,6.97 25.18,-9.79 25.18,-9.79 0,0 3.01,2.19 5.25,6.22 1.76,3.23 3.09,7.61 2.06,13.06 -1.46,7.65 3.18,21.88 6.88,31.5 2.23,5.8 4.13,9.97 4.13,9.97 0,0 1.07,4.77 -18.4,6.92z"/>
  <path class="fil21" d="M6659.8 6119.83c-5.41,3.36 -16.8,10.02 -24.37,10.88 -10.22,1.16 -29.31,-21.87 -29.31,-21.87l0.22 -0.05c0.85,0.05 5.02,1.16 23.03,14.61 9.32,6.97 25.18,-9.79 25.18,-9.79 0,0 3.01,2.19 5.25,6.22z"/>
  <path class="fil21" d="M6654.47 6181.28l-22.61 0c-7.57,-1.03 -13.19,-2.97 -20.92,-3.87 -11.81,-1.37 -17.24,2.92 -18.35,3.87l-0.17 0.21 -96.09 0c-2.4,-3.05 -0.08,-10.09 2.19,-15.3 2.89,-2.32 3.74,9.93 5.33,11.9 1.64,1.93 78.38,0.69 82.81,-2.15 4.42,-2.83 17.74,-7.82 36.27,-3.91 16.16,3.39 39.92,-5.33 45.81,-7.65 2.23,5.8 4.13,9.97 4.13,9.97 0,0 1.07,4.77 -18.4,6.92z"/>
  <path class="fil22" d="M10033.36 6116.92c8.25,-0.01 14.99,-6.71 14.99,-15 0.01,-186.03 -151.39,-337.42 -337.42,-337.42 -42.97,0 -84.79,8 -124.32,23.68 -7.69,3.05 -11.44,11.78 -8.42,19.47 3.1,7.65 11.77,11.47 19.51,8.42 35.97,-14.31 74.09,-21.58 113.23,-21.58 169.53,0 307.42,137.89 307.42,307.42 0,8.29 6.7,15 15,15z"/>
  <path class="fil20" d="M10303.78 5389.44c0,0 -22.86,47.57 -51.74,113.49 -32.41,73.87 -72.41,170.86 -96.22,249.71 -12.59,41.73 -20.67,78.34 -20.67,103.83 -0.04,8.72 33.69,44.22 43.4,57.75 61.41,85.48 145.3,199.61 145.3,199.61l22.85 -5.75c0,0 -32.06,-142.71 -78.77,-214 -9.18,-14.01 -35.06,-31.07 -33.82,-32.62l0.05 -0.05c4,-5.03 14.09,-17.71 27.8,-35.79 37.87,-49.81 103.6,-140.65 147.66,-225.14 2.76,-5.24 5.41,-10.48 7.94,-15.73 23.26,-47.14 38.56,-91.31 37.05,-124.06l-150.83 -71.25z"/>
  <path class="fil28" d="M10367.04 6113.61l-15.77 9.97c-5.8,2.49 -10.67,3.44 -16.51,6.15 -8.94,4.12 -10.57,9.88 -10.83,11.12l-0.04 0.26 -66.95 42.33c-3.18,-1.33 -5.12,-7.91 -6.1,-13.03 -0.68,-3.44 0.29,-7.04 2.62,-9.67 5.8,-6.57 18.65,-17.23 24.1,-36.96 3.1,-11.09 19.68,-45.97 19.68,-45.97l0.13 -0.13c0.61,-0.35 4.04,-1.29 23.3,1.37 9.97,1.33 12.68,-18.86 12.68,-18.86 0,0 3.18,0.43 6.75,2.62 2.83,1.77 5.92,4.64 7.94,9.38 2.79,6.66 13.11,15.85 20.45,21.78 4.48,3.61 7.87,6.07 7.87,6.07 0,-0.01 3.13,3.3 -9.32,13.58z"/>
  <path class="fil29" d="M10340.1 6062.81c-2.11,5.07 -6.75,15.31 -11.56,19.3 -6.53,5.46 -31.28,-4.29 -31.28,-4.29l0.13 -0.13c0.61,-0.35 4.04,-1.29 23.3,1.37 9.97,1.33 12.68,-18.86 12.68,-18.86 0,0 3.18,0.43 6.75,2.62z"/>
  <path class="fil29" d="M10367.04 6113.61l-15.77 9.97c-5.8,2.49 -10.67,3.44 -16.51,6.15 -8.94,4.12 -10.57,9.88 -10.83,11.12l-0.04 0.26 -66.95 42.33c-3.18,-1.33 -5.12,-7.91 -6.1,-13.03 0.9,-3.09 7.56,6.23 9.66,7.05 2.11,0.82 54.96,-34 56.6,-38.21 1.68,-4.16 8.47,-13.96 23.33,-19.08 12.93,-4.43 25.13,-21.79 28.06,-26.22 4.48,3.61 7.87,6.07 7.87,6.07 0,-0.01 3.13,3.3 -9.32,13.58z"/>
  <polygon class="fil6" points="10284.53,6155.71 10464.28,5593.47 10433.95,5583.76 10254.2,6146.05 "/>
  <polygon class="fil6" points="10299.61,6157.31 10723.92,6120.39 9937.02,5588.4 9982.06,5680.57 10631.71,6096.45 10296.87,6125.59 "/>
  <polygon class="fil6" points="10242.42,6132.38 10269.19,6115.15 9942.69,5592.13 9904.71,5631.5 "/>
  <path class="fil21" d="M10197.86 6057.82l-59.74 34.46c-7,4.04 -9.41,13.11 -5.38,20.11 4.04,7.04 13.11,9.45 20.11,5.41l59.74 -34.51c7.01,-4.04 9.45,-13.11 5.37,-20.11 -4.04,-7.01 -13.11,-9.46 -20.11,-5.38z"/>
  <polygon class="fil21" points="10186.04,6080.04 10261.32,6163.37 10268.29,6157.35 10192.95,6074.02 "/>
  <path class="fil27" d="M10428.53 5794.58c4.47,1.58 9.4,1.07 13.49,-1.38 143.15,-86.46 341.11,-53.97 398.4,-41.98l0.14 0.05c3.13,0.64 6.09,-1.77 6.09,-4.99l0 -11.17c0,-8.55 -6.28,-15.81 -14.74,-17.1 -30.99,-4.61 -103.35,-14.49 -143.79,-14.65 -1.11,-0.05 -2.2,-0.05 -3.26,-0.05 -90.63,0 -168.84,16.24 -233.12,48.25 -13.15,6.58 -28.37,7.48 -42.2,2.63l-17.61 -6.2c-10.09,-3.57 -21.14,1.77 -24.66,11.82 -2.28,6.49 1.11,13.62 7.65,15.94l53.63 18.83z"/>
  <path class="fil21" d="M10561.53 5576.66c0,0 5.75,-26.08 -10.62,-27.85 -16.32,-1.76 -76.02,11.05 -91.91,9.28 -15.9,-1.77 -99.01,-15.47 -113.62,-1.33 -14.57,14.18 -8.38,26.56 20.79,29.18 29.19,2.67 68.06,7.52 79.11,16.8 11.04,9.28 91.06,36.7 116.24,-26.09z"/>
  <path class="fil21" d="M10348.95 6150.86c0,-43.91 -35.63,-79.54 -79.59,-79.54 -43.95,0 -79.54,35.62 -79.54,79.54 0.01,43.96 35.58,79.58 79.54,79.58 43.97,0 79.58,-35.62 79.59,-79.58z"/>
  <polygon class="fil21" points="10702.35,6106.68 10790.74,5860.32 10784.13,5857.92 10695.69,6104.28 "/>
  <polygon class="fil21" points="10946.35,6220.13 10949.14,6213.64 10699,6106.17 10534.55,5871.24 10528.74,5875.32 10694.36,6111.89 10695.26,6112.27 "/>
  <path class="fil21" d="M10795.86 6380.67l6.7 -2.23c-1.76,-5.32 -98.45,-259.85 -102.58,-270.68l-2.53 -6.62 -155.82 246.45 5.98 3.78 148.26 -234.45c35.45,93.2 98.66,259.72 99.99,263.76z"/>
  <polygon class="fil21" points="10697.28,6094.82 10974.87,6047.09 10973.68,6040.12 10696.08,6087.87 "/>
  <polygon class="fil21" points="10675.62,6090.7 10682.37,6088.46 10601.02,5844.46 10594.32,5846.71 "/>
  <polygon class="fil21" points="10697.23,6112.7 10698.26,6112.18 10952.88,5983.09 10949.7,5976.78 10696.11,6105.35 10423.21,6059.59 10422.05,6066.55 "/>
  <path class="fil21" d="M10593.93 6371.82c1.51,-4.42 66.86,-165.18 103.43,-255.12l141.3 222.3 5.97 -3.78 -148.63 -233.85 -2.58 6.32c-4.26,10.48 -104.38,256.59 -106.19,261.91l6.71 2.23z"/>
  <polygon class="fil21" points="10970.19,6153.18 10971.27,6146.18 10697.19,6105.53 10696.17,6112.53 "/>
  <polygon class="fil21" points="10713.48,6072.44 10865.56,5897.41 10860.19,5892.77 10708.16,6067.8 "/>
  <polygon class="fil21" points="10705.54,6385.14 10712.58,6384.54 10691.35,6128.17 10684.3,6128.77 "/>
  <polygon class="fil21" points="10468.84,6265.77 10711.08,6097.78 10707.03,6091.98 10464.8,6259.97 "/>
  <polygon class="fil21" points="10897.48,6298.94 10902.51,6293.95 10700.19,6089.88 10700.19,5824.36 10693.16,5824.36 10693.16,6092.8 "/>
  <path class="fil22" d="M10748.85 6109.05c0,-28.84 -23.39,-52.17 -52.18,-52.17 -28.79,0 -52.17,23.33 -52.17,52.17 0,28.79 23.38,52.12 52.17,52.12 28.8,0 52.17,-23.33 52.18,-52.12z"/>
  <path class="fil23" d="M10956.7 6151.16c-2.32,14.48 -5.85,28.54 -10.44,42.16 -1.85,5.54 -3.91,11.04 -6.19,16.41 -0.9,2.2 -1.8,4.34 -2.79,6.49 -11.17,25.01 -26.16,48.01 -44.25,68.16 -1.54,1.76 -3.14,3.52 -4.77,5.24 -14.14,15.04 -30.04,28.36 -47.35,39.7 -1.93,1.33 -3.92,2.58 -5.94,3.82 -13.15,8.13 -27.03,15.13 -41.55,20.93 -2.18,0.85 -4.42,1.67 -6.62,2.49 -23.71,8.68 -48.99,14.01 -75.28,15.47 -2.36,0.13 -4.73,0.26 -7.1,0.29 -2.57,0.09 -5.16,0.13 -7.78,0.13 -32.91,0 -65.4,-6.14 -95.78,-18 -2.19,-0.86 -4.39,-1.72 -6.57,-2.67 -10.61,-4.47 -20.93,-9.63 -30.9,-15.47 -1.54,-0.9 -3.05,-1.8 -4.55,-2.79 -2.02,-1.2 -4,-2.45 -5.98,-3.78 -28.84,-18.78 -53.76,-43.14 -73.23,-71.46l0.01 -0.05c-1.42,-1.94 -2.71,-3.87 -3.96,-5.85 -2.4,-3.61 -4.68,-7.31 -6.87,-11.04 -17.19,-29.48 -28.37,-62.1 -33.05,-95.92 -1.46,-10.48 -2.33,-21.05 -2.45,-31.71 -0.08,-1.59 -0.08,-3.14 -0.08,-4.73 0,-13.61 1.03,-26.98 3.05,-40.04 0.35,-2.36 0.73,-4.69 1.16,-7.01 4.73,-26.08 13.32,-50.88 25.18,-73.74 5.68,-10.96 12.08,-21.49 19.21,-31.5 16.8,-23.64 37.39,-44.39 60.93,-61.41 1.94,-1.37 3.87,-2.7 5.8,-4.04 15.99,-10.91 33.22,-20.11 51.48,-27.33 2.16,-0.85 4.34,-1.72 6.57,-2.54 27.04,-9.84 56.17,-15.38 86.51,-15.77 1.17,-0.05 2.36,-0.05 3.52,-0.05 1.21,0 2.37,0 3.57,0.05 29.06,0.39 56.99,5.5 83.07,14.56 2.24,0.77 4.47,1.59 6.66,2.45 23.51,8.89 45.38,21.1 65.14,36.01 1.89,1.42 3.74,2.88 5.59,4.34 28.54,22.78 52.21,51.27 69.32,83.76 1.11,2.11 2.19,4.21 3.22,6.32 5.03,10.22 9.41,20.79 13.06,31.67 2.16,6.27 4.04,12.63 5.67,19.12 0.61,2.28 1.16,4.55 1.68,6.88 4.25,18.74 6.48,38.24 6.48,58.27 0,11.9 -0.77,23.64 -2.36,35.15 -0.29,2.36 -0.64,4.69 -1.03,7.01zm-10.44 -218.73c-55.42,-78.17 -146.66,-129.3 -249.63,-129.3 -103.17,0 -194.57,51.35 -250.01,129.81 -7.25,10.31 -13.92,21.06 -19.89,32.28l0.01 0.04c-22.95,42.89 -35.97,91.79 -35.97,143.74 0,2.79 0.04,5.64 0.13,8.43 0.26,10.61 1.11,21.18 2.53,31.71 5.25,40.01 18.4,78.65 38.72,113.58 26.48,45.46 64.42,83.54 109.75,110.18 36.02,21.19 76.02,34.64 117.39,39.67l1.08 0.13c11.99,1.46 24.11,2.19 36.27,2.19 12.38,0 24.63,-0.73 36.62,-2.19 0.39,-0.05 0.77,-0.09 1.12,-0.13 87.32,-10.79 163.33,-58.49 211.89,-126.98 35.46,-49.89 56.3,-110.83 56.3,-176.58 0.01,-65.75 -20.85,-126.68 -56.3,-176.57z"/>
  <path class="fil28" d="M10949.91 6150.18c-0.98,6.4 -2.24,12.71 -3.66,18.95 -3.04,13.11 -7.09,25.87 -12.03,38.11 -0.89,2.2 -1.8,4.34 -2.75,6.49 -10.61,24.45 -24.97,46.97 -42.24,66.82 -1.54,1.76 -3.13,3.52 -4.77,5.29 -13.7,14.91 -29.18,28.23 -46.07,39.58 -1.98,1.33 -3.95,2.62 -5.93,3.87 -12.76,8.12 -26.3,15.12 -40.48,20.92 -2.19,0.9 -4.39,1.77 -6.62,2.58 -23.29,8.81 -48.17,14.35 -74.12,15.98 -2.32,0.22 -4.73,0.35 -7.1,0.39 -3.25,0.17 -6.53,0.22 -9.84,0.22 -32.62,0 -63.82,-6.06 -92.56,-17.14 -2.18,-0.82 -4.39,-1.72 -6.57,-2.62 -12.24,-5.07 -23.98,-11.09 -35.19,-17.93 -2.02,-1.24 -4,-2.49 -5.98,-3.78 -28.66,-18.56 -53.41,-42.67 -72.75,-70.78 -1.37,-1.93 -2.67,-3.91 -3.95,-5.88 -20.32,-31.33 -34.08,-67.29 -39.28,-105.97 -1.36,-10.41 -2.14,-21.02 -2.23,-31.76 -0.04,-0.9 -0.04,-1.8 -0.04,-2.7 0,-14.09 1.11,-27.89 3.31,-41.39 0.4,-2.36 0.77,-4.68 1.24,-7.01 4.86,-25.61 13.5,-49.89 25.35,-72.23 5.76,-10.88 12.29,-21.32 19.52,-31.2 16.71,-22.99 37.17,-43.14 60.45,-59.56 1.94,-1.37 3.87,-2.7 5.85,-4 15.68,-10.44 32.53,-19.2 50.37,-26.03 2.2,-0.86 4.38,-1.68 6.61,-2.45l0.06 0c26.5,-9.37 54.96,-14.52 84.6,-14.65l1.21 0c1.97,0 3.94,0.05 5.87,0.09 28.19,0.6 55.27,5.8 80.58,14.78 2.24,0.77 4.42,1.59 6.62,2.49 22.57,8.68 43.57,20.5 62.57,34.89 1.89,1.38 3.74,2.84 5.59,4.35 27.72,22.13 50.75,49.84 67.46,81.39 1.12,2.11 2.2,4.21 3.23,6.32 7.61,15.38 13.75,31.62 18.17,48.56 0.62,2.28 1.2,4.56 1.72,6.88l0.13 0.48c4.34,18.74 6.62,38.24 6.62,58.31 0.01,10.96 -0.69,21.79 -2.02,32.36 -0.29,2.36 -0.6,4.68 -0.94,7.01zm6.96 -100c-0.51,-2.32 -1.12,-4.6 -1.72,-6.88 -2.45,-9.53 -5.41,-18.86 -8.9,-27.97 -3.04,-8.08 -6.49,-15.94 -10.31,-23.64 -1.02,-2.15 -2.11,-4.26 -3.22,-6.32 -17.36,-32.83 -41.29,-61.67 -70.05,-84.69 -1.84,-1.51 -3.7,-2.97 -5.58,-4.39 -43.79,-33.31 -98.06,-53.54 -156.9,-54.79 -1.97,-0.08 -3.91,-0.08 -5.88,-0.08l-1.2 0c-30.85,0.13 -60.51,5.5 -88.1,15.21 -2.22,0.78 -4.42,1.59 -6.61,2.45 -18.82,7.17 -36.62,16.41 -53.16,27.46 -1.98,1.29 -3.91,2.62 -5.85,4 -24.36,17.14 -45.76,38.24 -63.25,62.35 -7.26,9.97 -13.84,20.45 -19.64,31.41 -12.64,23.55 -21.83,49.25 -26.91,76.32 -0.47,2.32 -0.9,4.69 -1.24,7.01 -2.32,14.06 -3.48,28.49 -3.48,43.19 0.01,1.2 0,2.45 0.05,3.65 0.14,10.75 0.9,21.36 2.28,31.75 5.33,40.61 19.76,78.39 41.17,111.26 1.29,1.98 2.57,3.91 3.95,5.84 20.16,29.31 45.97,54.4 75.89,73.78 1.98,1.29 4,2.54 6.01,3.74 11.74,7.22 24.02,13.5 36.87,18.86 2.2,0.9 4.39,1.77 6.62,2.62 30,11.56 62.57,17.93 96.6,17.93 3.61,0 7.18,-0.09 10.75,-0.22 2.36,-0.08 4.73,-0.21 7.09,-0.39 26.95,-1.77 52.81,-7.52 77.05,-16.68 2.24,-0.81 4.43,-1.67 6.62,-2.57 14.87,-6.06 29.1,-13.4 42.5,-21.96 1.98,-1.24 3.95,-2.54 5.93,-3.86 17.54,-11.78 33.65,-25.57 47.87,-41.05 1.64,-1.72 3.23,-3.47 4.77,-5.24 18.31,-20.84 33.39,-44.51 44.57,-70.25 0.99,-2.15 1.88,-4.3 2.75,-6.49 0.74,-1.72 1.42,-3.48 2.06,-5.25 6.63,-17.4 11.47,-35.62 14.4,-54.52 0.35,-2.33 0.69,-4.69 0.99,-7.01 1.38,-11.13 2.11,-22.48 2.11,-33.95 0,-20.84 -2.36,-41.17 -6.88,-60.64z"/>
  <polygon class="fil21" points="9704.84,6106.68 9793.28,5860.32 9786.62,5857.92 9698.18,6104.28 "/>
  <polygon class="fil21" points="9948.83,6220.13 9951.63,6213.64 9701.49,6106.17 9537.03,5871.24 9531.28,5875.32 9696.84,6111.89 9697.79,6112.27 "/>
  <path class="fil21" d="M9798.39 6380.67l6.7 -2.23c-1.8,-5.32 -98.49,-259.85 -102.62,-270.68l-2.48 -6.62 -155.86 246.45 5.97 3.78 148.29 -234.45c35.41,93.2 98.62,259.72 100,263.76z"/>
  <polygon class="fil21" points="9699.77,6094.82 9977.37,6047.09 9976.16,6040.12 9698.56,6087.87 "/>
  <polygon class="fil21" points="9678.16,6090.7 9684.86,6088.46 9603.52,5844.46 9596.81,5846.71 "/>
  <polygon class="fil21" points="9699.72,6112.7 9700.76,6112.18 9955.37,5983.09 9952.19,5976.78 9698.6,6105.35 9425.69,6059.59 9424.53,6066.55 "/>
  <path class="fil21" d="M9596.42 6371.82c1.54,-4.42 66.86,-165.18 103.43,-255.12l141.34 222.3 5.92 -3.78 -148.63 -233.85 -2.58 6.32c-4.26,10.48 -104.38,256.59 -106.19,261.91l6.71 2.23z"/>
  <polygon class="fil21" points="9972.74,6153.18 9973.76,6146.18 9699.69,6105.53 9698.66,6112.53 "/>
  <polygon class="fil21" points="9715.97,6072.44 9868.05,5897.41 9862.72,5892.77 9710.64,6067.8 "/>
  <polygon class="fil21" points="9708.02,6385.14 9715.07,6384.54 9693.84,6128.17 9686.79,6128.77 "/>
  <polygon class="fil21" points="9471.33,6265.77 9713.57,6097.78 9709.52,6091.98 9467.29,6259.97 "/>
  <polygon class="fil21" points="9899.97,6298.94 9905,6293.95 9702.69,6089.88 9702.69,5824.36 9695.65,5824.36 9695.65,6092.8 "/>
  <path class="fil22" d="M9751.34 6109.05c0,-28.84 -23.39,-52.17 -52.18,-52.17 -28.79,0 -52.17,23.33 -52.17,52.17 0.01,28.79 23.38,52.12 52.17,52.12 28.8,0 52.17,-23.33 52.18,-52.12z"/>
  <path class="fil30" d="M9959.18 6151.16c-3.25,20.41 -8.94,40.05 -16.67,58.57 -0.86,2.2 -1.81,4.34 -2.79,6.49 -11.17,25.01 -26.13,48.01 -44.22,68.16 -1.54,1.76 -3.14,3.52 -4.77,5.24 -14.14,15.04 -30.04,28.41 -47.35,39.7 -1.98,1.33 -3.92,2.58 -5.93,3.82 -13.1,8.13 -27.04,15.13 -41.56,20.93 -2.14,0.85 -4.34,1.67 -6.57,2.49 -23.67,8.68 -48.99,14.01 -75.28,15.47 -2.36,0.13 -4.73,0.26 -7.1,0.29 -2.57,0.09 -5.16,0.13 -7.78,0.13 -32.96,0 -65.49,-6.14 -95.83,-18 -2.19,-0.86 -4.39,-1.72 -6.53,-2.67 -10.61,-4.47 -20.93,-9.63 -30.9,-15.47 -1.54,-0.9 -3.05,-1.8 -4.56,-2.79 -2.01,-1.2 -3.99,-2.45 -5.97,-3.78l-0.51 -0.34c-28.66,-18.74 -53.42,-42.98 -72.75,-71.12 -1.42,-1.94 -2.76,-3.92 -3.95,-5.89 -2.45,-3.61 -4.69,-7.31 -6.88,-11.04 -23.3,-40.01 -35.59,-85.77 -35.59,-132.36 0,-13.61 1.03,-26.98 3.05,-40.04 0.35,-2.36 0.74,-4.69 1.16,-7.01 12.38,-68.29 51.14,-127.5 105.32,-166.65 1.94,-1.37 3.82,-2.7 5.8,-4.04 1.25,-0.86 2.54,-1.72 3.82,-2.54 14.92,-9.84 30.86,-18.13 47.66,-24.79 2.2,-0.85 4.43,-1.72 6.62,-2.54 27.04,-9.84 56.17,-15.38 86.46,-15.77 1.21,-0.05 2.36,-0.05 3.57,-0.05 1.17,0 2.36,0 3.52,0.05 26.44,0.34 51.91,4.6 75.93,12.2 2.42,0.74 4.77,1.55 7.13,2.36 2.24,0.77 4.47,1.59 6.66,2.45 8.47,3.18 16.71,6.83 24.7,10.83 14.28,7.22 27.81,15.64 40.44,25.18 1.89,1.42 3.74,2.88 5.59,4.34 28.54,22.78 52.21,51.27 69.32,83.76 1.12,2.11 2.19,4.21 3.18,6.35 7.95,16.08 14.27,33.05 18.77,50.75 0.61,2.28 1.17,4.55 1.68,6.88 4.25,18.74 6.48,38.24 6.48,58.27 0.01,11.9 -0.81,23.64 -2.36,35.15 -0.29,2.36 -0.64,4.69 -1.03,7.01zm-100.17 -302.83c-7.94,-4.94 -16.2,-9.5 -24.62,-13.61 -12.84,-6.41 -26.26,-11.9 -40.1,-16.42 -29.95,-9.85 -61.91,-15.17 -95.14,-15.17 -45.63,0 -88.95,10.06 -127.88,28.06 -5.54,2.54 -11.04,5.29 -16.42,8.16 -96.09,51.66 -161.58,153.16 -161.58,269.65 0.01,54.11 14.27,107.22 41.34,153.72 26.48,45.46 64.42,83.54 109.75,110.18 3.44,2.02 6.96,4 10.48,5.85 33.22,17.83 69.54,29.26 106.96,33.82 0.36,0.08 0.69,0.13 1.08,0.13 12,1.46 24.1,2.19 36.27,2.19 12.38,0 24.63,-0.73 36.62,-2.19l1.11 -0.13c150.92,-18.65 268.15,-147.66 268.15,-303.56 0.01,-110.09 -58.49,-206.82 -146.02,-260.67z"/>
  <path class="fil28" d="M9952.4 6150.18c-3.1,19.85 -8.38,38.97 -15.68,57.06 -0.9,2.2 -1.81,4.34 -2.76,6.49 -10.61,24.45 -24.97,46.97 -42.24,66.82 -1.54,1.76 -3.13,3.52 -4.77,5.29 -13.7,14.91 -29.17,28.23 -46.06,39.58 -1.98,1.33 -3.96,2.62 -5.94,3.87 -12.75,8.12 -26.29,15.12 -40.48,20.92 -2.19,0.9 -4.39,1.77 -6.62,2.58 -23.28,8.81 -48.17,14.35 -74.08,15.98 -2.33,0.22 -4.73,0.35 -7.1,0.39 -3.26,0.17 -6.57,0.22 -9.88,0.22 -32.62,0 -63.81,-6.06 -92.56,-17.14 -2.18,-0.82 -4.38,-1.72 -6.57,-2.62 -12.2,-5.07 -23.98,-11.09 -35.15,-17.93 -2.01,-1.24 -3.99,-2.49 -5.97,-3.78 -0.56,-0.34 -1.12,-0.69 -1.68,-1.12 -27.97,-18.39 -52.12,-42.1 -71.12,-69.66 -1.33,-1.93 -2.67,-3.91 -3.91,-5.88 -26.3,-40.49 -41.6,-88.69 -41.6,-140.43 0,-14.09 1.12,-27.89 3.31,-41.39 0.39,-2.36 0.77,-4.68 1.25,-7.01 12.76,-67.07 51.52,-125.04 105.36,-162.95 1.94,-1.42 3.87,-2.75 5.8,-4.04l0.91 -0.55c15.43,-10.23 31.96,-18.78 49.46,-25.48 2.2,-0.86 4.42,-1.68 6.66,-2.45 26.51,-9.37 54.96,-14.52 84.61,-14.65l1.21 0c1.97,0 3.94,0.05 5.87,0.09 25.49,0.55 50.06,4.81 73.23,12.33 2.5,0.77 4.9,1.59 7.35,2.45 2.24,0.77 4.43,1.59 6.62,2.49 8.26,3.18 16.33,6.78 24.15,10.78 13.54,6.92 26.38,14.96 38.42,24.1 1.89,1.38 3.74,2.84 5.59,4.35 27.72,22.13 50.75,49.84 67.47,81.39 1.12,2.11 2.19,4.21 3.22,6.32 7.61,15.38 13.75,31.62 18.17,48.56 0.62,2.28 1.2,4.56 1.72,6.88 4.43,18.86 6.75,38.55 6.75,58.79 0.01,10.96 -0.69,21.79 -2.01,32.36 -0.3,2.36 -0.61,4.68 -0.95,7.01zm6.96 -100c-0.51,-2.32 -1.12,-4.6 -1.72,-6.88 -4.64,-18 -11.09,-35.27 -19.21,-51.61 -1.02,-2.15 -2.11,-4.26 -3.22,-6.32 -17.36,-32.83 -41.29,-61.67 -70.04,-84.69 -1.85,-1.51 -3.7,-2.97 -5.59,-4.39 -12.85,-9.8 -26.6,-18.43 -41.12,-25.82 -12.34,-6.28 -25.19,-11.6 -38.51,-15.95l-0.04 0c-10.01,-3.26 -20.24,-5.93 -30.73,-7.94 -15.07,-3.05 -30.64,-4.77 -46.5,-5.07 -1.97,-0.08 -3.91,-0.08 -5.88,-0.08l-1.2 0c-7.21,0.04 -14.4,0.34 -21.48,0.95 -23.11,1.93 -45.47,6.78 -66.57,14.26 -2.22,0.78 -4.47,1.59 -6.66,2.45 -16.15,6.14 -31.54,13.79 -46.03,22.86 -2.4,1.46 -4.77,3.01 -7.12,4.6 -1.99,1.29 -3.92,2.62 -5.85,4 -56.16,39.58 -96.6,100.07 -109.79,170.08 -0.47,2.32 -0.91,4.69 -1.25,7.01 -2.32,14.06 -3.48,28.49 -3.48,43.19 0.01,54.05 15.99,104.42 43.49,146.66 1.29,1.98 2.62,3.95 3.95,5.88 20.2,29.31 46.02,54.4 75.93,73.74 1.37,0.91 2.75,1.81 4.12,2.63 0.61,0.42 1.25,0.81 1.85,1.16 11.74,7.17 24.07,13.5 36.92,18.82 2.15,0.9 4.34,1.77 6.53,2.62 30,11.56 62.61,17.93 96.65,17.93 3.61,0 7.22,-0.09 10.78,-0.22 2.37,-0.08 4.73,-0.21 7.1,-0.39 26.94,-1.77 52.81,-7.52 77,-16.68 2.24,-0.81 4.43,-1.67 6.62,-2.57 14.87,-6.06 29.1,-13.4 42.5,-21.96 1.99,-1.24 3.95,-2.54 5.93,-3.86 17.54,-11.78 33.65,-25.57 47.88,-41.05 1.63,-1.72 3.22,-3.47 4.76,-5.24 18.31,-20.84 33.4,-44.51 44.6,-70.25 0.96,-2.15 1.86,-4.3 2.71,-6.49 7.69,-18.96 13.27,-38.98 16.46,-59.77 0.35,-2.33 0.69,-4.69 0.99,-7.01 1.38,-11.13 2.11,-22.48 2.11,-33.95 0,-20.84 -2.36,-41.17 -6.88,-60.64z"/>
  <path class="fil25" d="M10491.02 5390.39c0,0 64.66,102.58 -15.26,158.96 -79.92,56.42 -349.1,83.41 -335.91,94.32 40.35,33.47 77.05,84.95 75.12,393.15l-19.93 10.28c0,0 -191.97,-417.56 -179.13,-467.33 8.57,-32.92 288.52,-211.21 475.11,-189.38z"/>
  <path class="fil27" d="M10335.8 5603.78c0,0 163.11,-26.99 179.92,-84.57 12.59,-43.01 16.29,-60.55 -57.63,-199.52 0,0 -30.85,58.66 -192.08,45.08 0,0 0.82,7.6 0.82,17.92 -0.21,17.06 -2.89,41.38 -16.24,48.39l-0.81 0.39c-21.24,9.66 -54.07,29.22 -59.01,31.06 -0.22,0 98.92,18.99 145.04,141.25z"/>
  <path class="fil22" d="M10250.58 5431.07c71.84,-21.23 142.02,-18.99 183.4,-57.62 -60.93,-15.65 -134.2,9.24 -167.16,9.24 -0.21,17.06 -2.89,41.38 -16.24,48.38z"/>
  <path class="fil28" d="M10241.99 6051.76l-16.8 8.08c-6.06,1.8 -11.01,2.19 -17.15,4.21 -9.32,3.05 -11.6,8.6 -12.03,9.8l-0.08 0.21 -71.37 34.29c-3.01,-1.67 -4.17,-8.47 -4.56,-13.62 -0.3,-3.52 1.08,-6.96 3.74,-9.32 6.54,-5.85 20.49,-14.96 28.23,-33.9 4.34,-10.62 24.84,-43.35 24.84,-43.35l0.13 -0.13c0.69,-0.3 4.21,-0.82 23.03,4.04 9.72,2.49 14.74,-17.23 14.74,-17.23 0.01,-0.01 3.14,0.77 6.41,3.39 2.62,2.06 5.37,5.29 6.79,10.22 2.01,6.92 11.22,17.24 17.83,24.02 4.05,4.08 7.1,6.88 7.1,6.88 0,0 2.75,3.66 -10.83,12.42z"/>
  <path class="fil29" d="M10221.1 5998.22c-2.66,4.73 -8.42,14.4 -13.71,17.83 -7.09,4.6 -30.59,-7.91 -30.59,-7.91l0.13 -0.13c0.69,-0.3 4.21,-0.82 23.03,4.04 9.72,2.49 14.74,-17.23 14.74,-17.23 0.01,-0.01 3.14,0.77 6.41,3.39z"/>
  <path class="fil29" d="M10241.99 6051.76l-16.8 8.08c-6.06,1.8 -11.01,2.19 -17.15,4.21 -9.32,3.05 -11.6,8.6 -12.03,9.8l-0.08 0.21 -71.37 34.29c-3.01,-1.67 -4.17,-8.47 -4.56,-13.62 1.25,-2.96 6.79,7.05 8.77,8.08 1.98,1.08 58.52,-27.37 60.67,-31.32 2.15,-4 10.01,-12.93 25.35,-16.24 13.37,-2.92 27.51,-18.74 30.93,-22.78 4.05,4.08 7.1,6.88 7.1,6.88 0,0 2.75,3.66 -10.83,12.42z"/>
  <path class="fil27" d="M9836.25 5712.8c4.56,-11.43 15.21,-18.56 26.72,-19.3 132.06,-303.34 133.47,-305.74 135.45,-309.01l19.13 37.87c0.98,-1.68 -298.66,672.03 -298.66,672.03l-29.48 -11.99 146.84 -369.6z"/>
  <path class="fil21" d="M10151.15 5429.7c6.27,-21.1 -5.76,-43.27 -26.87,-49.55 -21.09,-6.27 -43.27,5.76 -49.54,26.86 -6.27,21.05 5.75,43.27 26.85,49.54 21.11,6.23 43.28,-5.75 49.56,-26.85z"/>
  <path class="fil21" d="M9904.44 5359.96c6.28,-21.1 -5.75,-43.27 -26.85,-49.54 -21.1,-6.28 -43.28,5.75 -49.55,26.81 -6.27,21.11 5.75,43.32 26.85,49.6 21.11,6.22 43.27,-5.76 49.55,-26.86z"/>
  <polygon class="fil21" points="9874.63,5386.73 10106.62,5444.95 10110.67,5398.12 9878.62,5339.89 "/>
  <path class="fil25" d="M10101.38 5340.49c0,0 -21.87,14.3 -37.3,13.66 -15.43,-0.64 -35.07,5.8 -35.07,5.8 0.01,0 -20.58,6.1 -22.51,30.56 0,0 0.08,7.09 32.49,-2.89 7.09,-2.19 24.1,1.94 29.9,0 5.8,-1.93 23.38,-20.97 38.72,-20.45l-6.23 -26.69z"/>
  <path class="fil20" d="M9984.5 5312.81c0,0 -21.83,14.31 -37.31,13.67 -15.43,-0.64 -35.06,5.8 -35.06,5.8 0,0 -20.58,6.1 -22.52,30.55 0.01,0 0.48,10.06 32.49,-2.88 8.82,-3.57 24.15,1.94 29.95,0 5.76,-1.93 26.99,-18.22 41.69,-22.26l-9.24 -24.89z"/>
  <path class="fil22" d="M10259.74 4726.25c31.89,5.75 46.66,22.99 66.9,72.11 21.11,51.26 -4.47,98.45 -24.79,92.31 -13.01,-3.96 -17.61,18.39 -17.61,18.39l-124.1 -108.41c0,0 18.08,-79.63 99.61,-74.39z"/>
  <path class="fil20" d="M10187.07 5021.89c0,0 43.23,24.32 38.16,85.95 -5.11,61.62 -61.67,158.74 -104.63,182.85 -34.03,19.08 -132.54,48.91 -132.54,48.91l-3.56 -26.78c0,0 80.14,-52.29 97.5,-70.17 37.18,-38.33 72.58,-235.66 105.07,-220.75z"/>
  <path class="fil25" d="M10191.37 5160.44c1.97,13.88 5.63,25.82 10.13,37.21 3.79,9.54 8.13,18.61 12.59,28.06 13.16,27.76 44.09,41.47 45.12,94.88 0.4,18.4 155.82,-59.34 156.72,-123.67l0.05 -0.51c0.3,-3.09 0.68,-11.43 1.2,-22.47 1.17,-27.04 2.67,-70.09 3.23,-91.92 0.01,-0.51 0,-0.99 0.05,-1.46 0.21,-9.37 0.51,-16.12 0.85,-17.88 -20.79,-88.57 -68.67,-88.91 -85,-88.65 -2.19,0.05 -4.39,0.08 -6.53,0.21 -9.03,0.39 -17.49,-3.86 -22.69,-11.22 -9.16,-13.02 -19.42,-35.37 -25.7,-65.91l-3.69 1.59 -62.79 26.68c0,0 5.8,20.29 9.93,39.67 1.76,8.29 3.18,16.42 3.73,22.73 0.52,6.09 -3.01,11.78 -8.68,13.96l0.01 0.05c-1.12,2.49 -38.56,88.22 -28.54,158.65z"/>
  <path class="fil20" d="M10201.51 5197.65c3.78,9.54 8.12,18.61 12.59,28.06 13.16,27.76 44.09,41.47 45.12,94.88 0.95,0.09 1.94,0.17 2.88,0.26 114.78,8.98 153.89,-124.45 153.89,-124.45 0.3,-3.09 0.68,-11.43 1.2,-22.47l-207.12 0.29c0,0 -4.26,9.41 -8.55,23.42z"/>
  <path class="fil4" d="M10172.37 5134.44c0.61,1.72 1.25,3.44 1.93,5.16 19.9,47.4 63.86,291.48 63.86,291.48 0.56,-0.35 179.62,11.73 250.61,-86.21 3.44,10.36 -13.37,-49.33 -39.49,-129.51 -19.64,-60.17 -29.65,-102.62 -28.88,-133.34 0.01,-0.51 0,-0.99 0.05,-1.46 -4.6,-3.65 -9.03,-7.05 -13.16,-10.31 -13.15,-10.35 -22.99,-19.17 -23.2,-30.03 -0.08,-4.26 0.21,-8.64 0.82,-12.98 0.3,-2.07 0.6,-4.13 1.03,-6.19 4.13,-21.58 13.93,-40.86 13.93,-40.86 -22.56,-10.15 -63.56,-6.15 -63.56,-6.15 0.01,0 -15.38,34.38 -48.13,54.87 -9.16,5.76 -41.9,20.11 -58.02,5.16 -10.65,-9.88 -10.96,-30.13 -10.27,-32.27l0.01 -0.05c-37.13,12.98 -50.67,24.54 -50.67,24.54 21.54,15.12 -12.21,62.31 3.13,108.16z"/>
  <path class="fil20" d="M10214.92 4925.38c0,0 5.8,20.29 9.93,39.67 36.39,-8.68 48.77,-46.15 52.81,-66.35l-62.74 26.68z"/>
  <path class="fil25" d="M10206.54 4946.31c0,0 86.97,-16.71 75.71,-70.73 -11.26,-54.02 -7.61,-92.52 -63.6,-84.14 -55.99,8.38 -62.48,31.25 -63.09,50.19 -0.63,18.95 28.07,107.65 50.98,104.68z"/>
  <path class="fil22" d="M10151.83 4811.07c10.02,-19.08 20.88,-17.61 27.59,-13.92 41.9,-35.97 80.48,-3.87 80.48,-3.87 13.93,37.56 46.5,53.89 46.5,53.89 0.01,0 -13.75,13.06 -52.12,11.3 -11.73,-0.51 -23.3,-6.32 -33.78,-14.18 19.94,21.66 43.69,35.24 43.69,35.24 -47.68,-11 -77.82,-67.85 -80.92,-73.87 -4.28,5.84 -12.54,18.35 -13.61,29.13 -1.46,14.65 2.53,43.35 -5.93,44.13 0,0 -26.91,-39.32 -11.9,-67.85z"/>
  <path class="fil25" d="M10101.38 5340.49l6.24 26.68c0,0 145.92,-19.93 193.62,-47.69 47.7,-27.76 119.93,-190.97 125.65,-259.99 0.3,-3.65 0.47,-7.12 0.56,-10.48 1.77,-59.56 -27.59,-68.84 -27.59,-68.84 -11.78,-5.38 -26.35,14.74 -41.82,46.23 -32.44,65.96 -68.66,181.82 -90.19,216.11 -16.54,26.34 -166.48,97.98 -166.48,97.98z"/>
  <path class="fil4" d="M10358.06 5026.41c40.01,-9.45 69.4,22.61 69.4,22.61 1.77,-59.56 -27.59,-68.84 -27.59,-68.84 -11.78,-5.38 -26.35,14.74 -41.81,46.23z"/>
  <path class="fil4" d="M10169.24 5026.28c0,0 -14.61,13.58 -20.24,44.48 0.01,0 21.66,0.13 31.76,21.27 0,0 7.94,-62.39 -11.52,-65.75z"/>
  <path class="fil22" d="M10253.73 4745.59c0,0 48.08,-59.56 108.71,-42.85 60.64,16.71 95.18,86.76 123.33,75.24 47.32,-19.33 60.42,44.14 41.55,90.33 -16.49,40.35 -87.79,55.74 -130.98,11.56 -31.44,-32.23 -74.68,-169.82 -127.97,-123.84 -53.28,46.02 -14.65,-10.44 -14.64,-10.44z"/>
  <path class="fil31" d="M11689.51 6425.93l0 4.55c0,7.26 -5.94,13.24 -13.24,13.24l-11662.98 0c-7.31,0 -13.28,-5.98 -13.28,-13.24l0 -4.55c0,-7.27 5.98,-13.24 13.28,-13.24l11662.99 0c7.3,0 13.22,5.97 13.23,13.24z"/>
  <polygon class="fil17" points="3590.5,5661.71 3631.12,5630.25 3557.8,5630.21 "/>
  <polygon class="fil17" points="5594.52,5902.09 5622.41,5880.52 5529.93,5880.52 "/>
 </g>
</svg>
