<svg id="Layer_1" enable-background="new 0 0 509.833 509.833" height="512" viewBox="0 0 509.833 509.833" width="512" xmlns="http://www.w3.org/2000/svg"><g><path d="m149.625 361.885c-13.195 13.195-34.588 13.195-47.782 0-13.195-13.195-13.195-34.587 0-47.782l135.311-135.311 11.175-75.637 37.978-37.978c51.135-51.135 134.041-51.135 185.176 0 51.135 51.135 51.135 134.041 0 185.176l-13.962 13.962-203.432 198.436c-14.168 14.168-37.139 14.168-51.308 0-14.168-14.168-14.168-37.139 0-51.308l.003-.018-.01.011c-14.168 14.168-37.14 14.168-51.308 0-14.168-14.168-14.168-37.139 0-51.308" fill="#f9c2ca"/><path d="m474.432 68.23-319.918 345.92c14.244 11.38 35.069 10.48 48.264-2.714l.01-.01-.003.018c-14.168 14.168-14.168 37.139 0 51.308 14.168 14.168 37.14 14.168 51.308 0l203.431-198.436 13.962-13.962c50.131-50.131 51.108-130.794 2.946-182.124z" fill="#f9a7b0"/><path d="m335.168 472.094c-14.551 14.551-38.144 14.551-52.695 0l-26.655-26.655c-14.551-14.551-14.551-38.144 0-52.695 14.551-14.551 38.144-14.551 52.695 0l26.655 26.655c14.552 14.551 14.552 38.143 0 52.695z" fill="#b35324"/><path d="m387.865 419.397c-14.551 14.551-38.144 14.551-52.695 0l-47.18-47.18c-14.551-14.551-14.551-38.144 0-52.695 14.551-14.551 38.144-14.551 52.695 0l47.18 47.18c14.551 14.551 14.551 38.144 0 52.695z" fill="#b35324"/><path d="m440.56 366.702c-14.551 14.551-38.144 14.551-52.695 0l-33.429-33.429c-14.551-14.551-14.551-38.144 0-52.695 14.551-14.551 38.144-14.551 52.695 0l33.429 33.429c14.551 14.551 14.551 38.144 0 52.695z" fill="#e68a2e"/><path d="m335.165 419.402-47.18-47.18c-14.406-14.406-14.541-37.667-.424-52.25l99.853 99.853c-14.583 14.118-37.844 13.983-52.249-.423z" fill="#8a3000"/><path d="m105.611 310.338-69.152-65.475c-48.612-48.612-48.612-127.427 0-176.039 48.612-48.612 127.427-48.612 176.039 0l93.566 90.778c16.505 15.971 16.722 42.368.482 58.608-16.053 16.053-42.081 16.053-58.134 0l-13.559-13.559c-6.483-6.483-16.993-6.485-23.478-.004z" fill="#b35324"/><path d="m105.611 310.338-69.152-65.393c-48.612-48.612-48.612-127.427 0-176.039.008-.008.015-.015.023-.022l155.374 155.374z" fill="#8a3000"/></g></svg>